<mxfile host="Electron" agent="Mozilla/5.0 (Windows NT 10.0; Win64; x64) AppleWebKit/537.36 (KHTML, like Gecko) draw.io/28.0.6 Chrome/138.0.7204.100 Electron/37.2.3 Safari/537.36" version="28.0.6">
  <diagram name="Page-1" id="bEDtBJjbRW64ONqI4fNz">
    <mxGraphModel dx="7440" dy="5315" grid="1" gridSize="10" guides="1" tooltips="1" connect="1" arrows="1" fold="1" page="0" pageScale="1" pageWidth="850" pageHeight="1100" background="none" math="0" shadow="0">
      <root>
        <mxCell id="0" />
        <mxCell id="1" parent="0" />
        <mxCell id="LPKB3k54g_Fxfj-QyEzr-134" value="" style="edgeStyle=orthogonalEdgeStyle;rounded=0;orthogonalLoop=1;jettySize=auto;html=1;" parent="1" source="LPKB3k54g_Fxfj-QyEzr-133" target="LPKB3k54g_Fxfj-QyEzr-95" edge="1">
          <mxGeometry relative="1" as="geometry" />
        </mxCell>
        <mxCell id="LPKB3k54g_Fxfj-QyEzr-133" value="" style="rounded=1;whiteSpace=wrap;html=1;" parent="1" vertex="1">
          <mxGeometry x="6520" y="-60" width="380" height="160" as="geometry" />
        </mxCell>
        <mxCell id="PZsNeblNguJEN_u89_DD-129" value="ACK" style="rhombus;whiteSpace=wrap;html=1;strokeWidth=5;strokeColor=#FF8000;" parent="1" vertex="1">
          <mxGeometry x="8810" y="-40" width="40" height="40" as="geometry" />
        </mxCell>
        <mxCell id="ylHFpK_zeYIFlG54JJtC-148" value="PROTOCOL" style="rounded=1;whiteSpace=wrap;html=1;strokeColor=#009900;strokeWidth=5;" parent="1" vertex="1">
          <mxGeometry x="4530" y="160" width="120" height="40" as="geometry" />
        </mxCell>
        <mxCell id="02ePOp9WBVK9enxZNh84-42" value="" style="rounded=1;whiteSpace=wrap;html=1;fillColor=#333333;" parent="1" vertex="1">
          <mxGeometry x="-130" y="800" width="2020" height="470" as="geometry" />
        </mxCell>
        <mxCell id="02ePOp9WBVK9enxZNh84-1" value="" style="rounded=1;whiteSpace=wrap;html=1;fillColor=default;strokeColor=#009900;strokeWidth=5;" parent="1" vertex="1">
          <mxGeometry x="-100" y="930" width="1580" height="280" as="geometry" />
        </mxCell>
        <mxCell id="02ePOp9WBVK9enxZNh84-17" value="" style="rounded=1;whiteSpace=wrap;html=1;fillColor=none;strokeColor=#009900;strokeWidth=5;" parent="1" vertex="1">
          <mxGeometry x="1210" y="950" width="250" height="240" as="geometry" />
        </mxCell>
        <mxCell id="02ePOp9WBVK9enxZNh84-16" value="" style="rounded=1;whiteSpace=wrap;html=1;fillColor=none;strokeColor=#009900;strokeWidth=5;" parent="1" vertex="1">
          <mxGeometry x="800" y="950" width="390" height="240" as="geometry" />
        </mxCell>
        <mxCell id="02ePOp9WBVK9enxZNh84-15" value="" style="rounded=1;whiteSpace=wrap;html=1;fillColor=none;strokeColor=#009900;strokeWidth=5;" parent="1" vertex="1">
          <mxGeometry x="100" y="950" width="500" height="240" as="geometry" />
        </mxCell>
        <mxCell id="02ePOp9WBVK9enxZNh84-21" value="" style="rounded=1;whiteSpace=wrap;html=1;fillColor=none;strokeColor=#009900;strokeWidth=5;" parent="1" vertex="1">
          <mxGeometry x="620" y="950" width="160" height="240" as="geometry" />
        </mxCell>
        <mxCell id="YNT85TJLPvtrmsC-psUP-7" style="edgeStyle=orthogonalEdgeStyle;rounded=0;orthogonalLoop=1;jettySize=auto;html=1;entryX=0.5;entryY=0;entryDx=0;entryDy=0;" parent="1" source="YNT85TJLPvtrmsC-psUP-6" target="YNT85TJLPvtrmsC-psUP-5" edge="1">
          <mxGeometry relative="1" as="geometry" />
        </mxCell>
        <mxCell id="YNT85TJLPvtrmsC-psUP-11" style="edgeStyle=orthogonalEdgeStyle;rounded=0;orthogonalLoop=1;jettySize=auto;html=1;entryX=0;entryY=0.5;entryDx=0;entryDy=0;" parent="1" source="YNT85TJLPvtrmsC-psUP-6" target="YNT85TJLPvtrmsC-psUP-10" edge="1">
          <mxGeometry relative="1" as="geometry" />
        </mxCell>
        <mxCell id="YNT85TJLPvtrmsC-psUP-12" style="edgeStyle=orthogonalEdgeStyle;rounded=0;orthogonalLoop=1;jettySize=auto;html=1;entryX=0;entryY=0.5;entryDx=0;entryDy=0;" parent="1" source="YNT85TJLPvtrmsC-psUP-6" target="YNT85TJLPvtrmsC-psUP-4" edge="1">
          <mxGeometry relative="1" as="geometry">
            <Array as="points">
              <mxPoint x="720" y="280" />
              <mxPoint x="720" y="220" />
            </Array>
          </mxGeometry>
        </mxCell>
        <mxCell id="YNT85TJLPvtrmsC-psUP-25" style="edgeStyle=orthogonalEdgeStyle;rounded=0;orthogonalLoop=1;jettySize=auto;html=1;entryX=0;entryY=0.5;entryDx=0;entryDy=0;" parent="1" source="YNT85TJLPvtrmsC-psUP-6" target="YNT85TJLPvtrmsC-psUP-13" edge="1">
          <mxGeometry relative="1" as="geometry">
            <Array as="points">
              <mxPoint x="740" y="440" />
              <mxPoint x="740" y="540" />
            </Array>
          </mxGeometry>
        </mxCell>
        <mxCell id="YNT85TJLPvtrmsC-psUP-75" style="edgeStyle=orthogonalEdgeStyle;rounded=0;orthogonalLoop=1;jettySize=auto;html=1;exitX=1;exitY=0.929;exitDx=0;exitDy=0;exitPerimeter=0;entryX=1;entryY=0.667;entryDx=0;entryDy=0;entryPerimeter=0;" parent="1" source="YNT85TJLPvtrmsC-psUP-6" target="YNT85TJLPvtrmsC-psUP-67" edge="1">
          <mxGeometry relative="1" as="geometry">
            <mxPoint x="50" y="400" as="targetPoint" />
            <Array as="points">
              <mxPoint x="690" y="500" />
              <mxPoint x="690" y="540" />
              <mxPoint x="380" y="540" />
              <mxPoint x="380" y="400" />
            </Array>
          </mxGeometry>
        </mxCell>
        <mxCell id="YNT85TJLPvtrmsC-psUP-78" style="edgeStyle=orthogonalEdgeStyle;rounded=0;orthogonalLoop=1;jettySize=auto;html=1;entryX=0;entryY=0.333;entryDx=0;entryDy=0;entryPerimeter=0;" parent="1" source="YNT85TJLPvtrmsC-psUP-6" target="YNT85TJLPvtrmsC-psUP-77" edge="1">
          <mxGeometry relative="1" as="geometry">
            <mxPoint x="740" y="670" as="targetPoint" />
            <Array as="points">
              <mxPoint x="730" y="460" />
              <mxPoint x="730" y="680" />
            </Array>
          </mxGeometry>
        </mxCell>
        <mxCell id="YNT85TJLPvtrmsC-psUP-6" value="node_dispatch.py" style="whiteSpace=wrap;html=1;aspect=fixed;" parent="1" vertex="1">
          <mxGeometry x="400" y="240" width="280" height="280" as="geometry" />
        </mxCell>
        <mxCell id="YNT85TJLPvtrmsC-psUP-32" style="edgeStyle=orthogonalEdgeStyle;rounded=0;orthogonalLoop=1;jettySize=auto;html=1;entryX=1;entryY=0.5;entryDx=0;entryDy=0;" parent="1" source="YNT85TJLPvtrmsC-psUP-3" target="YNT85TJLPvtrmsC-psUP-24" edge="1">
          <mxGeometry relative="1" as="geometry" />
        </mxCell>
        <mxCell id="YNT85TJLPvtrmsC-psUP-3" value="node_recieve_over&lt;br&gt;_lora.py" style="whiteSpace=wrap;html=1;aspect=fixed;" parent="1" vertex="1">
          <mxGeometry x="1360" y="-80" width="120" height="120" as="geometry" />
        </mxCell>
        <mxCell id="YNT85TJLPvtrmsC-psUP-36" style="edgeStyle=orthogonalEdgeStyle;rounded=0;orthogonalLoop=1;jettySize=auto;html=1;entryX=0.5;entryY=0;entryDx=0;entryDy=0;" parent="1" source="YNT85TJLPvtrmsC-psUP-4" target="YNT85TJLPvtrmsC-psUP-10" edge="1">
          <mxGeometry relative="1" as="geometry" />
        </mxCell>
        <mxCell id="YNT85TJLPvtrmsC-psUP-4" value="node_ ack&lt;br&gt;_manager.py" style="whiteSpace=wrap;html=1;aspect=fixed;" parent="1" vertex="1">
          <mxGeometry x="760" y="160" width="120" height="120" as="geometry" />
        </mxCell>
        <mxCell id="YNT85TJLPvtrmsC-psUP-5" value="node_logger.py" style="whiteSpace=wrap;html=1;aspect=fixed;" parent="1" vertex="1">
          <mxGeometry x="480" y="640" width="120" height="120" as="geometry" />
        </mxCell>
        <mxCell id="YNT85TJLPvtrmsC-psUP-92" style="edgeStyle=orthogonalEdgeStyle;rounded=0;orthogonalLoop=1;jettySize=auto;html=1;" parent="1" source="YNT85TJLPvtrmsC-psUP-8" target="YNT85TJLPvtrmsC-psUP-87" edge="1">
          <mxGeometry relative="1" as="geometry">
            <Array as="points">
              <mxPoint x="1540" y="340" />
              <mxPoint x="1540" y="200" />
            </Array>
          </mxGeometry>
        </mxCell>
        <mxCell id="YNT85TJLPvtrmsC-psUP-8" value="node_send_over&lt;br&gt;_lora.py" style="whiteSpace=wrap;html=1;aspect=fixed;" parent="1" vertex="1">
          <mxGeometry x="1360" y="320" width="120" height="120" as="geometry" />
        </mxCell>
        <mxCell id="YNT85TJLPvtrmsC-psUP-20" style="edgeStyle=orthogonalEdgeStyle;rounded=0;orthogonalLoop=1;jettySize=auto;html=1;entryX=0;entryY=0.5;entryDx=0;entryDy=0;" parent="1" source="YNT85TJLPvtrmsC-psUP-10" target="YNT85TJLPvtrmsC-psUP-14" edge="1">
          <mxGeometry relative="1" as="geometry" />
        </mxCell>
        <mxCell id="YNT85TJLPvtrmsC-psUP-37" style="edgeStyle=orthogonalEdgeStyle;rounded=0;orthogonalLoop=1;jettySize=auto;html=1;" parent="1" source="YNT85TJLPvtrmsC-psUP-10" edge="1">
          <mxGeometry relative="1" as="geometry">
            <mxPoint x="640" y="240" as="targetPoint" />
            <Array as="points">
              <mxPoint x="920" y="350" />
              <mxPoint x="920" y="120" />
              <mxPoint x="640" y="120" />
              <mxPoint x="640" y="240" />
            </Array>
          </mxGeometry>
        </mxCell>
        <mxCell id="YNT85TJLPvtrmsC-psUP-10" value="node_dispatch&lt;br&gt;_message_builder.py" style="whiteSpace=wrap;html=1;aspect=fixed;" parent="1" vertex="1">
          <mxGeometry x="760" y="320" width="120" height="120" as="geometry" />
        </mxCell>
        <mxCell id="YNT85TJLPvtrmsC-psUP-13" value="node_registries _access.py" style="whiteSpace=wrap;html=1;aspect=fixed;" parent="1" vertex="1">
          <mxGeometry x="760" y="480" width="120" height="120" as="geometry" />
        </mxCell>
        <mxCell id="YNT85TJLPvtrmsC-psUP-21" style="edgeStyle=orthogonalEdgeStyle;rounded=0;orthogonalLoop=1;jettySize=auto;html=1;entryX=0;entryY=0.5;entryDx=0;entryDy=0;" parent="1" source="YNT85TJLPvtrmsC-psUP-14" target="YNT85TJLPvtrmsC-psUP-8" edge="1">
          <mxGeometry relative="1" as="geometry" />
        </mxCell>
        <mxCell id="YNT85TJLPvtrmsC-psUP-14" value="node_encoder.py" style="whiteSpace=wrap;html=1;aspect=fixed;" parent="1" vertex="1">
          <mxGeometry x="1160" y="320" width="120" height="120" as="geometry" />
        </mxCell>
        <mxCell id="YNT85TJLPvtrmsC-psUP-34" style="edgeStyle=orthogonalEdgeStyle;rounded=0;orthogonalLoop=1;jettySize=auto;html=1;entryX=1;entryY=0.5;entryDx=0;entryDy=0;" parent="1" source="YNT85TJLPvtrmsC-psUP-15" target="YNT85TJLPvtrmsC-psUP-23" edge="1">
          <mxGeometry relative="1" as="geometry" />
        </mxCell>
        <mxCell id="YNT85TJLPvtrmsC-psUP-15" value="node_sanity&lt;br&gt;_check.py" style="whiteSpace=wrap;html=1;aspect=fixed;" parent="1" vertex="1">
          <mxGeometry x="960" y="-80" width="120" height="120" as="geometry" />
        </mxCell>
        <mxCell id="YNT85TJLPvtrmsC-psUP-16" value="RAK3272S" style="rounded=1;whiteSpace=wrap;html=1;" parent="1" vertex="1">
          <mxGeometry x="1560" y="320" width="120" height="120" as="geometry" />
        </mxCell>
        <mxCell id="YNT85TJLPvtrmsC-psUP-17" value="" style="shape=mxgraph.arrows2.wedgeArrowDashed2;html=1;bendable=0;startWidth=58.94736842105263;stepSize=15;rounded=0;entryX=1;entryY=0.5;entryDx=0;entryDy=0;" parent="1" target="YNT85TJLPvtrmsC-psUP-16" edge="1">
          <mxGeometry width="100" height="100" relative="1" as="geometry">
            <mxPoint x="1800" y="380" as="sourcePoint" />
            <mxPoint x="1410" y="240" as="targetPoint" />
          </mxGeometry>
        </mxCell>
        <mxCell id="YNT85TJLPvtrmsC-psUP-18" value="RAK3272S" style="rounded=1;whiteSpace=wrap;html=1;" parent="1" vertex="1">
          <mxGeometry x="1560" y="-80" width="120" height="120" as="geometry" />
        </mxCell>
        <mxCell id="YNT85TJLPvtrmsC-psUP-19" value="" style="shape=mxgraph.arrows2.wedgeArrowDashed2;html=1;bendable=0;startWidth=58.94736842105263;stepSize=15;rounded=0;entryX=1;entryY=0.5;entryDx=0;entryDy=0;" parent="1" target="YNT85TJLPvtrmsC-psUP-18" edge="1">
          <mxGeometry width="100" height="100" relative="1" as="geometry">
            <mxPoint x="1800" y="-20" as="sourcePoint" />
            <mxPoint x="1410" y="-160" as="targetPoint" />
          </mxGeometry>
        </mxCell>
        <mxCell id="YNT85TJLPvtrmsC-psUP-35" style="edgeStyle=orthogonalEdgeStyle;rounded=0;orthogonalLoop=1;jettySize=auto;html=1;entryX=0.5;entryY=0;entryDx=0;entryDy=0;" parent="1" source="YNT85TJLPvtrmsC-psUP-23" target="YNT85TJLPvtrmsC-psUP-6" edge="1">
          <mxGeometry relative="1" as="geometry" />
        </mxCell>
        <mxCell id="YNT85TJLPvtrmsC-psUP-23" value="node_inbound&lt;br&gt;_message_builder.py" style="whiteSpace=wrap;html=1;aspect=fixed;" parent="1" vertex="1">
          <mxGeometry x="480" y="-80" width="120" height="120" as="geometry" />
        </mxCell>
        <mxCell id="YNT85TJLPvtrmsC-psUP-33" style="edgeStyle=orthogonalEdgeStyle;rounded=0;orthogonalLoop=1;jettySize=auto;html=1;entryX=1;entryY=0.5;entryDx=0;entryDy=0;" parent="1" source="YNT85TJLPvtrmsC-psUP-24" target="YNT85TJLPvtrmsC-psUP-15" edge="1">
          <mxGeometry relative="1" as="geometry" />
        </mxCell>
        <mxCell id="YNT85TJLPvtrmsC-psUP-24" value="node_decoder.py" style="whiteSpace=wrap;html=1;aspect=fixed;" parent="1" vertex="1">
          <mxGeometry x="1160" y="-80" width="120" height="120" as="geometry" />
        </mxCell>
        <mxCell id="YNT85TJLPvtrmsC-psUP-27" style="edgeStyle=orthogonalEdgeStyle;rounded=0;orthogonalLoop=1;jettySize=auto;html=1;entryX=0.5;entryY=0;entryDx=0;entryDy=0;" parent="1" source="YNT85TJLPvtrmsC-psUP-26" target="YNT85TJLPvtrmsC-psUP-14" edge="1">
          <mxGeometry relative="1" as="geometry" />
        </mxCell>
        <mxCell id="YNT85TJLPvtrmsC-psUP-28" style="edgeStyle=orthogonalEdgeStyle;rounded=0;orthogonalLoop=1;jettySize=auto;html=1;entryX=0.5;entryY=1;entryDx=0;entryDy=0;" parent="1" source="YNT85TJLPvtrmsC-psUP-26" target="YNT85TJLPvtrmsC-psUP-24" edge="1">
          <mxGeometry relative="1" as="geometry" />
        </mxCell>
        <mxCell id="YNT85TJLPvtrmsC-psUP-26" value="node_map&lt;br&gt;_access.py" style="whiteSpace=wrap;html=1;aspect=fixed;" parent="1" vertex="1">
          <mxGeometry x="1160" y="120" width="120" height="120" as="geometry" />
        </mxCell>
        <mxCell id="YNT85TJLPvtrmsC-psUP-30" style="edgeStyle=orthogonalEdgeStyle;rounded=0;orthogonalLoop=1;jettySize=auto;html=1;entryX=1;entryY=0.333;entryDx=0;entryDy=0;entryPerimeter=0;" parent="1" source="YNT85TJLPvtrmsC-psUP-29" target="YNT85TJLPvtrmsC-psUP-26" edge="1">
          <mxGeometry relative="1" as="geometry" />
        </mxCell>
        <mxCell id="YNT85TJLPvtrmsC-psUP-29" value="MAPS" style="rounded=1;whiteSpace=wrap;html=1;strokeColor=#009900;strokeWidth=5;" parent="1" vertex="1">
          <mxGeometry x="1360" y="110" width="120" height="40" as="geometry" />
        </mxCell>
        <mxCell id="YNT85TJLPvtrmsC-psUP-38" value="" style="shape=link;html=1;rounded=0;width=17.36842105263158;entryX=0;entryY=0.5;entryDx=0;entryDy=0;exitX=1;exitY=0.5;exitDx=0;exitDy=0;" parent="1" source="YNT85TJLPvtrmsC-psUP-3" target="YNT85TJLPvtrmsC-psUP-18" edge="1">
          <mxGeometry width="100" relative="1" as="geometry">
            <mxPoint x="1270" y="290" as="sourcePoint" />
            <mxPoint x="1370" y="290" as="targetPoint" />
          </mxGeometry>
        </mxCell>
        <mxCell id="YNT85TJLPvtrmsC-psUP-39" value="" style="shape=link;html=1;rounded=0;width=17.36842105263158;exitX=1;exitY=0.5;exitDx=0;exitDy=0;entryX=0;entryY=0.5;entryDx=0;entryDy=0;" parent="1" source="YNT85TJLPvtrmsC-psUP-8" target="YNT85TJLPvtrmsC-psUP-16" edge="1">
          <mxGeometry width="100" relative="1" as="geometry">
            <mxPoint x="1520" y="390" as="sourcePoint" />
            <mxPoint x="1620" y="390" as="targetPoint" />
          </mxGeometry>
        </mxCell>
        <mxCell id="YNT85TJLPvtrmsC-psUP-40" value="Startup ACK" style="rhombus;whiteSpace=wrap;html=1;strokeWidth=5;strokeColor=#990099;" parent="1" vertex="1">
          <mxGeometry x="940" y="330" width="40" height="40" as="geometry" />
        </mxCell>
        <mxCell id="YNT85TJLPvtrmsC-psUP-41" value="" style="endArrow=classic;html=1;rounded=0;exitX=0.5;exitY=0;exitDx=0;exitDy=0;" parent="1" source="YNT85TJLPvtrmsC-psUP-13" target="YNT85TJLPvtrmsC-psUP-10" edge="1">
          <mxGeometry width="50" height="50" relative="1" as="geometry">
            <mxPoint x="1090" y="320" as="sourcePoint" />
            <mxPoint x="1140" y="270" as="targetPoint" />
          </mxGeometry>
        </mxCell>
        <mxCell id="YNT85TJLPvtrmsC-psUP-44" value="Weather" style="rhombus;whiteSpace=wrap;html=1;strokeWidth=5;strokeColor=#990099;" parent="1" vertex="1">
          <mxGeometry x="940" y="390" width="40" height="40" as="geometry" />
        </mxCell>
        <mxCell id="YNT85TJLPvtrmsC-psUP-45" value="Time&lt;br&gt;Sync" style="rhombus;whiteSpace=wrap;html=1;strokeWidth=5;strokeColor=#990099;" parent="1" vertex="1">
          <mxGeometry x="990" y="330" width="40" height="40" as="geometry" />
        </mxCell>
        <mxCell id="YNT85TJLPvtrmsC-psUP-46" value="Telemetry" style="rhombus;whiteSpace=wrap;html=1;strokeWidth=5;strokeColor=#990099;" parent="1" vertex="1">
          <mxGeometry x="990" y="390" width="40" height="40" as="geometry" />
        </mxCell>
        <mxCell id="YNT85TJLPvtrmsC-psUP-47" value="Retry" style="rhombus;whiteSpace=wrap;html=1;strokeWidth=5;strokeColor=#990099;" parent="1" vertex="1">
          <mxGeometry x="1040" y="330" width="40" height="40" as="geometry" />
        </mxCell>
        <mxCell id="YNT85TJLPvtrmsC-psUP-48" value="Avis Lite" style="rhombus;whiteSpace=wrap;html=1;strokeWidth=5;strokeColor=#990099;" parent="1" vertex="1">
          <mxGeometry x="1040" y="390" width="40" height="40" as="geometry" />
        </mxCell>
        <mxCell id="YNT85TJLPvtrmsC-psUP-49" value="ACK" style="rhombus;whiteSpace=wrap;html=1;strokeWidth=5;strokeColor=#990099;" parent="1" vertex="1">
          <mxGeometry x="1090" y="330" width="40" height="40" as="geometry" />
        </mxCell>
        <mxCell id="YNT85TJLPvtrmsC-psUP-50" value="Avis&lt;div&gt;TDOA&lt;/div&gt;" style="rhombus;whiteSpace=wrap;html=1;strokeWidth=5;strokeColor=#990099;" parent="1" vertex="1">
          <mxGeometry x="1090" y="390" width="40" height="40" as="geometry" />
        </mxCell>
        <mxCell id="YNT85TJLPvtrmsC-psUP-51" value="node_hardware&lt;br&gt;_message_builder.py" style="whiteSpace=wrap;html=1;aspect=fixed;" parent="1" vertex="1">
          <mxGeometry x="120" y="-80" width="120" height="120" as="geometry" />
        </mxCell>
        <mxCell id="YNT85TJLPvtrmsC-psUP-52" style="edgeStyle=orthogonalEdgeStyle;rounded=0;orthogonalLoop=1;jettySize=auto;html=1;exitX=0.5;exitY=1;exitDx=0;exitDy=0;" parent="1" source="YNT85TJLPvtrmsC-psUP-51" edge="1">
          <mxGeometry relative="1" as="geometry">
            <mxPoint x="440" y="240" as="targetPoint" />
            <Array as="points">
              <mxPoint x="180" y="80" />
              <mxPoint x="440" y="80" />
            </Array>
          </mxGeometry>
        </mxCell>
        <mxCell id="YNT85TJLPvtrmsC-psUP-53" value="Start Project" style="rhombus;whiteSpace=wrap;html=1;strokeWidth=5;strokeColor=#FF0000;" parent="1" vertex="1">
          <mxGeometry x="490" y="50" width="40" height="40" as="geometry" />
        </mxCell>
        <mxCell id="YNT85TJLPvtrmsC-psUP-54" value="Change&lt;br&gt;Mode" style="rhombus;whiteSpace=wrap;html=1;strokeWidth=5;strokeColor=#FF0000;" parent="1" vertex="1">
          <mxGeometry x="490" y="110" width="40" height="40" as="geometry" />
        </mxCell>
        <mxCell id="YNT85TJLPvtrmsC-psUP-55" value="Telemetry Update" style="rhombus;whiteSpace=wrap;html=1;strokeWidth=5;strokeColor=#FF0000;" parent="1" vertex="1">
          <mxGeometry x="550" y="50" width="40" height="40" as="geometry" />
        </mxCell>
        <mxCell id="YNT85TJLPvtrmsC-psUP-56" value="Error" style="rhombus;whiteSpace=wrap;html=1;strokeWidth=5;strokeColor=#FF0000;" parent="1" vertex="1">
          <mxGeometry x="550" y="110" width="40" height="40" as="geometry" />
        </mxCell>
        <mxCell id="YNT85TJLPvtrmsC-psUP-57" value="ACK" style="rhombus;whiteSpace=wrap;html=1;strokeWidth=5;strokeColor=#FF0000;" parent="1" vertex="1">
          <mxGeometry x="490" y="170" width="40" height="40" as="geometry" />
        </mxCell>
        <mxCell id="YNT85TJLPvtrmsC-psUP-58" value="Retry" style="rhombus;whiteSpace=wrap;html=1;strokeWidth=5;strokeColor=#FF0000;" parent="1" vertex="1">
          <mxGeometry x="550" y="170" width="40" height="40" as="geometry" />
        </mxCell>
        <mxCell id="YNT85TJLPvtrmsC-psUP-59" value="Avis Lite" style="rhombus;whiteSpace=wrap;html=1;strokeWidth=5;strokeColor=#999900;" parent="1" vertex="1">
          <mxGeometry x="260" y="30" width="40" height="40" as="geometry" />
        </mxCell>
        <mxCell id="YNT85TJLPvtrmsC-psUP-60" value="Weather" style="rhombus;whiteSpace=wrap;html=1;strokeWidth=5;strokeColor=#999900;" parent="1" vertex="1">
          <mxGeometry x="260" y="90" width="40" height="40" as="geometry" />
        </mxCell>
        <mxCell id="YNT85TJLPvtrmsC-psUP-61" value="Avis TDOA" style="rhombus;whiteSpace=wrap;html=1;strokeWidth=5;strokeColor=#999900;" parent="1" vertex="1">
          <mxGeometry x="320" y="30" width="40" height="40" as="geometry" />
        </mxCell>
        <mxCell id="YNT85TJLPvtrmsC-psUP-62" value="Telemetry" style="rhombus;whiteSpace=wrap;html=1;strokeWidth=5;strokeColor=#999900;" parent="1" vertex="1">
          <mxGeometry x="320" y="90" width="40" height="40" as="geometry" />
        </mxCell>
        <mxCell id="YNT85TJLPvtrmsC-psUP-66" value="node_weather&lt;br&gt;_sampler.py" style="whiteSpace=wrap;html=1;aspect=fixed;" parent="1" vertex="1">
          <mxGeometry x="-80" y="130" width="120" height="120" as="geometry" />
        </mxCell>
        <mxCell id="YNT85TJLPvtrmsC-psUP-73" style="edgeStyle=orthogonalEdgeStyle;rounded=0;orthogonalLoop=1;jettySize=auto;html=1;" parent="1" source="YNT85TJLPvtrmsC-psUP-67" edge="1">
          <mxGeometry relative="1" as="geometry">
            <mxPoint x="120" y="-10" as="targetPoint" />
            <Array as="points">
              <mxPoint x="80" y="380" />
              <mxPoint x="80" y="-10" />
              <mxPoint x="120" y="-10" />
            </Array>
          </mxGeometry>
        </mxCell>
        <mxCell id="YNT85TJLPvtrmsC-psUP-67" value="node_avis_mode&lt;br&gt;_selector.py" style="whiteSpace=wrap;html=1;aspect=fixed;" parent="1" vertex="1">
          <mxGeometry x="-80" y="320" width="120" height="120" as="geometry" />
        </mxCell>
        <mxCell id="02ePOp9WBVK9enxZNh84-53" style="edgeStyle=orthogonalEdgeStyle;rounded=0;orthogonalLoop=1;jettySize=auto;html=1;" parent="1" source="YNT85TJLPvtrmsC-psUP-68" edge="1">
          <mxGeometry relative="1" as="geometry">
            <mxPoint x="760" y="580" as="targetPoint" />
            <Array as="points">
              <mxPoint x="-120" y="-20" />
              <mxPoint x="-120" y="780" />
              <mxPoint x="680" y="780" />
              <mxPoint x="680" y="580" />
              <mxPoint x="760" y="580" />
            </Array>
          </mxGeometry>
        </mxCell>
        <mxCell id="YNT85TJLPvtrmsC-psUP-68" value="node_time_sync&lt;br&gt;_trigger.py" style="whiteSpace=wrap;html=1;aspect=fixed;" parent="1" vertex="1">
          <mxGeometry x="-80" y="-80" width="120" height="120" as="geometry" />
        </mxCell>
        <mxCell id="YNT85TJLPvtrmsC-psUP-74" style="edgeStyle=orthogonalEdgeStyle;rounded=0;orthogonalLoop=1;jettySize=auto;html=1;" parent="1" source="YNT85TJLPvtrmsC-psUP-69" edge="1">
          <mxGeometry relative="1" as="geometry">
            <mxPoint x="120" y="20" as="targetPoint" />
            <Array as="points">
              <mxPoint x="100" y="560" />
              <mxPoint x="100" y="20" />
            </Array>
          </mxGeometry>
        </mxCell>
        <mxCell id="YNT85TJLPvtrmsC-psUP-69" value="node_telemetry&lt;br&gt;_calibrator.py" style="whiteSpace=wrap;html=1;aspect=fixed;" parent="1" vertex="1">
          <mxGeometry x="-80" y="520" width="120" height="120" as="geometry" />
        </mxCell>
        <mxCell id="YNT85TJLPvtrmsC-psUP-70" value="Time Sync" style="rhombus;whiteSpace=wrap;html=1;strokeWidth=5;strokeColor=#999900;" parent="1" vertex="1">
          <mxGeometry x="380" y="90" width="40" height="40" as="geometry" />
        </mxCell>
        <mxCell id="YNT85TJLPvtrmsC-psUP-71" style="edgeStyle=orthogonalEdgeStyle;rounded=0;orthogonalLoop=1;jettySize=auto;html=1;entryX=0;entryY=0.167;entryDx=0;entryDy=0;entryPerimeter=0;" parent="1" source="YNT85TJLPvtrmsC-psUP-68" target="YNT85TJLPvtrmsC-psUP-51" edge="1">
          <mxGeometry relative="1" as="geometry">
            <mxPoint x="90" y="-50" as="targetPoint" />
            <Array as="points">
              <mxPoint x="90" y="-60" />
              <mxPoint x="90" y="-60" />
            </Array>
          </mxGeometry>
        </mxCell>
        <mxCell id="YNT85TJLPvtrmsC-psUP-72" style="edgeStyle=orthogonalEdgeStyle;rounded=0;orthogonalLoop=1;jettySize=auto;html=1;entryX=0;entryY=0.417;entryDx=0;entryDy=0;entryPerimeter=0;" parent="1" source="YNT85TJLPvtrmsC-psUP-66" target="YNT85TJLPvtrmsC-psUP-51" edge="1">
          <mxGeometry relative="1" as="geometry">
            <mxPoint x="100" y="-30" as="targetPoint" />
            <Array as="points">
              <mxPoint x="60" y="180" />
              <mxPoint x="60" y="-30" />
            </Array>
          </mxGeometry>
        </mxCell>
        <mxCell id="YNT85TJLPvtrmsC-psUP-79" style="edgeStyle=orthogonalEdgeStyle;rounded=0;orthogonalLoop=1;jettySize=auto;html=1;entryX=1;entryY=0.667;entryDx=0;entryDy=0;entryPerimeter=0;" parent="1" source="YNT85TJLPvtrmsC-psUP-77" target="YNT85TJLPvtrmsC-psUP-83" edge="1">
          <mxGeometry relative="1" as="geometry">
            <Array as="points">
              <mxPoint x="640" y="720" />
              <mxPoint x="640" y="600" />
            </Array>
          </mxGeometry>
        </mxCell>
        <mxCell id="YNT85TJLPvtrmsC-psUP-81" style="edgeStyle=orthogonalEdgeStyle;rounded=0;orthogonalLoop=1;jettySize=auto;html=1;entryX=0.75;entryY=1;entryDx=0;entryDy=0;" parent="1" source="YNT85TJLPvtrmsC-psUP-77" target="YNT85TJLPvtrmsC-psUP-10" edge="1">
          <mxGeometry relative="1" as="geometry">
            <Array as="points">
              <mxPoint x="920" y="700" />
              <mxPoint x="920" y="460" />
              <mxPoint x="850" y="460" />
            </Array>
          </mxGeometry>
        </mxCell>
        <mxCell id="YNT85TJLPvtrmsC-psUP-82" style="edgeStyle=orthogonalEdgeStyle;rounded=0;orthogonalLoop=1;jettySize=auto;html=1;" parent="1" source="YNT85TJLPvtrmsC-psUP-77" target="YNT85TJLPvtrmsC-psUP-13" edge="1">
          <mxGeometry relative="1" as="geometry" />
        </mxCell>
        <mxCell id="YNT85TJLPvtrmsC-psUP-77" value="launch_project.py" style="whiteSpace=wrap;html=1;aspect=fixed;" parent="1" vertex="1">
          <mxGeometry x="760" y="640" width="120" height="120" as="geometry" />
        </mxCell>
        <mxCell id="YNT85TJLPvtrmsC-psUP-80" style="edgeStyle=orthogonalEdgeStyle;rounded=0;orthogonalLoop=1;jettySize=auto;html=1;" parent="1" target="YNT85TJLPvtrmsC-psUP-83" edge="1">
          <mxGeometry relative="1" as="geometry">
            <mxPoint x="680" y="480" as="sourcePoint" />
            <mxPoint x="40" y="590" as="targetPoint" />
            <Array as="points">
              <mxPoint x="710" y="480" />
              <mxPoint x="710" y="560" />
            </Array>
          </mxGeometry>
        </mxCell>
        <mxCell id="YNT85TJLPvtrmsC-psUP-84" style="edgeStyle=orthogonalEdgeStyle;rounded=0;orthogonalLoop=1;jettySize=auto;html=1;" parent="1" source="YNT85TJLPvtrmsC-psUP-83" edge="1">
          <mxGeometry relative="1" as="geometry">
            <mxPoint x="40" y="600" as="targetPoint" />
            <Array as="points">
              <mxPoint x="80" y="600" />
              <mxPoint x="80" y="600" />
            </Array>
          </mxGeometry>
        </mxCell>
        <mxCell id="YNT85TJLPvtrmsC-psUP-83" value="node_calibrator&lt;br&gt;_manager.py" style="whiteSpace=wrap;html=1;aspect=fixed;" parent="1" vertex="1">
          <mxGeometry x="120" y="520" width="120" height="120" as="geometry" />
        </mxCell>
        <mxCell id="YNT85TJLPvtrmsC-psUP-85" value="PROTOCOL" style="rounded=1;whiteSpace=wrap;html=1;strokeColor=#009900;strokeWidth=5;" parent="1" vertex="1">
          <mxGeometry x="1360" y="210" width="120" height="40" as="geometry" />
        </mxCell>
        <mxCell id="YNT85TJLPvtrmsC-psUP-86" style="edgeStyle=orthogonalEdgeStyle;rounded=0;orthogonalLoop=1;jettySize=auto;html=1;entryX=1;entryY=0.676;entryDx=0;entryDy=0;entryPerimeter=0;" parent="1" source="YNT85TJLPvtrmsC-psUP-85" target="YNT85TJLPvtrmsC-psUP-26" edge="1">
          <mxGeometry relative="1" as="geometry" />
        </mxCell>
        <mxCell id="YNT85TJLPvtrmsC-psUP-88" style="edgeStyle=orthogonalEdgeStyle;rounded=0;orthogonalLoop=1;jettySize=auto;html=1;entryX=1;entryY=0.75;entryDx=0;entryDy=0;" parent="1" source="YNT85TJLPvtrmsC-psUP-87" target="YNT85TJLPvtrmsC-psUP-3" edge="1">
          <mxGeometry relative="1" as="geometry">
            <Array as="points">
              <mxPoint x="1540" y="160" />
              <mxPoint x="1540" y="10" />
            </Array>
          </mxGeometry>
        </mxCell>
        <mxCell id="YNT85TJLPvtrmsC-psUP-87" value="lora_simulator.py" style="whiteSpace=wrap;html=1;aspect=fixed;" parent="1" vertex="1">
          <mxGeometry x="1560" y="120" width="120" height="120" as="geometry" />
        </mxCell>
        <mxCell id="02ePOp9WBVK9enxZNh84-2" value="MAPS" style="rounded=1;whiteSpace=wrap;html=1;strokeColor=#009900;strokeWidth=5;" parent="1" vertex="1">
          <mxGeometry x="300" y="970" width="120" height="40" as="geometry" />
        </mxCell>
        <mxCell id="02ePOp9WBVK9enxZNh84-3" value="node_registry&lt;br&gt;.json" style="shape=note;whiteSpace=wrap;html=1;backgroundOutline=1;darkOpacity=0.05;strokeColor=#009900;" parent="1" vertex="1">
          <mxGeometry x="1070" y="1050" width="100" height="120" as="geometry" />
        </mxCell>
        <mxCell id="02ePOp9WBVK9enxZNh84-4" value="gateway_registry&lt;br&gt;.json" style="shape=note;whiteSpace=wrap;html=1;backgroundOutline=1;darkOpacity=0.05;strokeColor=#009900;" parent="1" vertex="1">
          <mxGeometry x="950" y="1050" width="100" height="120" as="geometry" />
        </mxCell>
        <mxCell id="02ePOp9WBVK9enxZNh84-5" value="time_sync&lt;br&gt;.json" style="shape=note;whiteSpace=wrap;html=1;backgroundOutline=1;darkOpacity=0.05;strokeColor=#009900;" parent="1" vertex="1">
          <mxGeometry x="820" y="1050" width="100" height="120" as="geometry" />
        </mxCell>
        <mxCell id="02ePOp9WBVK9enxZNh84-6" value="event_type_map&lt;br&gt;.json" style="shape=note;whiteSpace=wrap;html=1;backgroundOutline=1;darkOpacity=0.05;strokeColor=#009900;" parent="1" vertex="1">
          <mxGeometry x="120" y="1030" width="100" height="120" as="geometry" />
        </mxCell>
        <mxCell id="02ePOp9WBVK9enxZNh84-7" value="confidence_scale&lt;br&gt;_map.json" style="shape=note;whiteSpace=wrap;html=1;backgroundOutline=1;darkOpacity=0.05;strokeColor=#009900;" parent="1" vertex="1">
          <mxGeometry x="240" y="1030" width="100" height="120" as="geometry" />
        </mxCell>
        <mxCell id="02ePOp9WBVK9enxZNh84-8" value="gps_binary_map&lt;br&gt;.json" style="shape=note;whiteSpace=wrap;html=1;backgroundOutline=1;darkOpacity=0.05;strokeColor=#009900;" parent="1" vertex="1">
          <mxGeometry x="360" y="1030" width="100" height="120" as="geometry" />
        </mxCell>
        <mxCell id="02ePOp9WBVK9enxZNh84-9" value="taxonomy_map&lt;br&gt;.json" style="shape=note;whiteSpace=wrap;html=1;backgroundOutline=1;darkOpacity=0.05;strokeColor=#009900;" parent="1" vertex="1">
          <mxGeometry x="480" y="1030" width="100" height="120" as="geometry" />
        </mxCell>
        <mxCell id="02ePOp9WBVK9enxZNh84-10" value="REGISTRIES" style="rounded=1;whiteSpace=wrap;html=1;strokeColor=#009900;strokeWidth=5;" parent="1" vertex="1">
          <mxGeometry x="940" y="970" width="120" height="40" as="geometry" />
        </mxCell>
        <mxCell id="02ePOp9WBVK9enxZNh84-11" value="FIRMWARE/SOFTWARE" style="rounded=1;whiteSpace=wrap;html=1;strokeColor=#009900;strokeWidth=5;" parent="1" vertex="1">
          <mxGeometry x="1270" y="970" width="150" height="40" as="geometry" />
        </mxCell>
        <mxCell id="02ePOp9WBVK9enxZNh84-12" value="&lt;div&gt;raspberry_pi&lt;br&gt;_os.img&lt;/div&gt;&lt;div&gt;&lt;br&gt;&lt;/div&gt;" style="shape=note;whiteSpace=wrap;html=1;backgroundOutline=1;darkOpacity=0.05;strokeColor=#009900;" parent="1" vertex="1">
          <mxGeometry x="1230" y="1050" width="100" height="120" as="geometry" />
        </mxCell>
        <mxCell id="02ePOp9WBVK9enxZNh84-13" value="birdnet.img" style="shape=note;whiteSpace=wrap;html=1;backgroundOutline=1;darkOpacity=0.05;strokeColor=#009900;" parent="1" vertex="1">
          <mxGeometry x="1340" y="1050" width="100" height="120" as="geometry" />
        </mxCell>
        <mxCell id="02ePOp9WBVK9enxZNh84-14" value="MICRO SD STORAGE" style="rounded=1;whiteSpace=wrap;html=1;strokeColor=#009900;strokeWidth=5;" parent="1" vertex="1">
          <mxGeometry x="720" y="870" width="120" height="60" as="geometry" />
        </mxCell>
        <mxCell id="02ePOp9WBVK9enxZNh84-18" value="STRUCTURED&lt;br&gt;PROTOCOL" style="rounded=1;whiteSpace=wrap;html=1;strokeColor=#009900;strokeWidth=5;" parent="1" vertex="1">
          <mxGeometry x="640" y="960" width="120" height="50" as="geometry" />
        </mxCell>
        <mxCell id="02ePOp9WBVK9enxZNh84-20" value="event_sentence&lt;br&gt;_structure.json" style="shape=note;whiteSpace=wrap;html=1;backgroundOutline=1;darkOpacity=0.05;strokeColor=#009900;" parent="1" vertex="1">
          <mxGeometry x="650" y="1050" width="100" height="120" as="geometry" />
        </mxCell>
        <mxCell id="02ePOp9WBVK9enxZNh84-22" value="" style="rounded=1;whiteSpace=wrap;html=1;" parent="1" vertex="1">
          <mxGeometry x="1520" y="890" width="320" height="320" as="geometry" />
        </mxCell>
        <mxCell id="02ePOp9WBVK9enxZNh84-23" value="Event" style="rhombus;whiteSpace=wrap;html=1;strokeWidth=5;strokeColor=#990099;" parent="1" vertex="1">
          <mxGeometry x="1570" y="1140" width="60" height="60" as="geometry" />
        </mxCell>
        <mxCell id="02ePOp9WBVK9enxZNh84-24" value="Event" style="rhombus;whiteSpace=wrap;html=1;strokeWidth=5;strokeColor=#FF0000;" parent="1" vertex="1">
          <mxGeometry x="1570" y="1060" width="60" height="60" as="geometry" />
        </mxCell>
        <mxCell id="02ePOp9WBVK9enxZNh84-25" value="Event" style="rhombus;whiteSpace=wrap;html=1;strokeWidth=5;strokeColor=#999900;" parent="1" vertex="1">
          <mxGeometry x="1570" y="980" width="60" height="60" as="geometry" />
        </mxCell>
        <mxCell id="02ePOp9WBVK9enxZNh84-26" value="LOCAL" style="rounded=1;whiteSpace=wrap;html=1;strokeColor=#009900;strokeWidth=5;" parent="1" vertex="1">
          <mxGeometry x="1540" y="910" width="120" height="40" as="geometry" />
        </mxCell>
        <mxCell id="02ePOp9WBVK9enxZNh84-27" value="Access to locally stored data&amp;nbsp;" style="text;html=1;align=center;verticalAlign=middle;whiteSpace=wrap;rounded=0;" parent="1" vertex="1">
          <mxGeometry x="1680" y="910" width="160" height="30" as="geometry" />
        </mxCell>
        <mxCell id="02ePOp9WBVK9enxZNh84-28" value="Hardware event" style="text;html=1;align=center;verticalAlign=middle;whiteSpace=wrap;rounded=0;" parent="1" vertex="1">
          <mxGeometry x="1710" y="990" width="100" height="30" as="geometry" />
        </mxCell>
        <mxCell id="02ePOp9WBVK9enxZNh84-31" value="Outbound LoRa event" style="text;html=1;align=center;verticalAlign=middle;whiteSpace=wrap;rounded=0;" parent="1" vertex="1">
          <mxGeometry x="1700" y="1150" width="120" height="30" as="geometry" />
        </mxCell>
        <mxCell id="02ePOp9WBVK9enxZNh84-32" value="Inbound LorRa event" style="text;html=1;align=center;verticalAlign=middle;whiteSpace=wrap;rounded=0;" parent="1" vertex="1">
          <mxGeometry x="1690" y="1070" width="130" height="30" as="geometry" />
        </mxCell>
        <mxCell id="02ePOp9WBVK9enxZNh84-33" value="EnviroPulse Node Script Logic&amp;nbsp; &amp;nbsp; &amp;nbsp; &amp;nbsp; &amp;nbsp; &amp;nbsp; &amp;nbsp; &amp;nbsp; &amp;nbsp; &amp;nbsp; &amp;nbsp; &amp;nbsp; V1" style="rounded=1;whiteSpace=wrap;html=1;" parent="1" vertex="1">
          <mxGeometry x="1520" y="830" width="320" height="40" as="geometry" />
        </mxCell>
        <mxCell id="02ePOp9WBVK9enxZNh84-34" value="DISPATCH LOGGING" style="rounded=1;whiteSpace=wrap;html=1;" parent="1" vertex="1">
          <mxGeometry x="710" y="100" width="170" height="40" as="geometry" />
        </mxCell>
        <mxCell id="02ePOp9WBVK9enxZNh84-36" value="node_registry&lt;br&gt;_manager.py" style="whiteSpace=wrap;html=1;aspect=fixed;" parent="1" vertex="1">
          <mxGeometry x="1120" y="560" width="120" height="120" as="geometry" />
        </mxCell>
        <mxCell id="02ePOp9WBVK9enxZNh84-38" value="gateway_registry&lt;br&gt;_manager.py" style="whiteSpace=wrap;html=1;aspect=fixed;" parent="1" vertex="1">
          <mxGeometry x="960" y="560" width="120" height="120" as="geometry" />
        </mxCell>
        <mxCell id="02ePOp9WBVK9enxZNh84-40" value="time_sync_manager&lt;br&gt;.py" style="whiteSpace=wrap;html=1;aspect=fixed;" parent="1" vertex="1">
          <mxGeometry x="1280" y="560" width="120" height="120" as="geometry" />
        </mxCell>
        <mxCell id="02ePOp9WBVK9enxZNh84-41" value="REGISTRIES" style="rounded=1;whiteSpace=wrap;html=1;strokeColor=#009900;strokeWidth=5;" parent="1" vertex="1">
          <mxGeometry x="1120" y="740" width="120" height="40" as="geometry" />
        </mxCell>
        <mxCell id="02ePOp9WBVK9enxZNh84-44" value="" style="endArrow=classic;startArrow=classic;html=1;rounded=0;exitX=1;exitY=0.5;exitDx=0;exitDy=0;entryX=0.5;entryY=0;entryDx=0;entryDy=0;" parent="1" source="YNT85TJLPvtrmsC-psUP-13" target="02ePOp9WBVK9enxZNh84-38" edge="1">
          <mxGeometry width="50" height="50" relative="1" as="geometry">
            <mxPoint x="949" y="546" as="sourcePoint" />
            <mxPoint x="999" y="496" as="targetPoint" />
            <Array as="points">
              <mxPoint x="1020" y="540" />
            </Array>
          </mxGeometry>
        </mxCell>
        <mxCell id="02ePOp9WBVK9enxZNh84-45" value="" style="endArrow=classic;startArrow=classic;html=1;rounded=0;entryX=1;entryY=0.167;entryDx=0;entryDy=0;exitX=0.5;exitY=0;exitDx=0;exitDy=0;entryPerimeter=0;" parent="1" source="02ePOp9WBVK9enxZNh84-40" target="YNT85TJLPvtrmsC-psUP-13" edge="1">
          <mxGeometry width="50" height="50" relative="1" as="geometry">
            <mxPoint x="950" y="550" as="sourcePoint" />
            <mxPoint x="1000" y="500" as="targetPoint" />
            <Array as="points">
              <mxPoint x="1340" y="500" />
            </Array>
          </mxGeometry>
        </mxCell>
        <mxCell id="02ePOp9WBVK9enxZNh84-46" value="" style="endArrow=classic;startArrow=classic;html=1;rounded=0;exitX=0.5;exitY=0;exitDx=0;exitDy=0;entryX=1;entryY=0.333;entryDx=0;entryDy=0;entryPerimeter=0;" parent="1" source="02ePOp9WBVK9enxZNh84-36" target="YNT85TJLPvtrmsC-psUP-13" edge="1">
          <mxGeometry width="50" height="50" relative="1" as="geometry">
            <mxPoint x="1180" y="550" as="sourcePoint" />
            <mxPoint x="1230" y="500" as="targetPoint" />
            <Array as="points">
              <mxPoint x="1180" y="520" />
            </Array>
          </mxGeometry>
        </mxCell>
        <mxCell id="02ePOp9WBVK9enxZNh84-47" value="" style="endArrow=classic;startArrow=classic;html=1;rounded=0;exitX=0.5;exitY=1;exitDx=0;exitDy=0;entryX=0.25;entryY=0;entryDx=0;entryDy=0;" parent="1" source="02ePOp9WBVK9enxZNh84-38" target="02ePOp9WBVK9enxZNh84-41" edge="1">
          <mxGeometry width="50" height="50" relative="1" as="geometry">
            <mxPoint x="1170" y="700" as="sourcePoint" />
            <mxPoint x="1220" y="650" as="targetPoint" />
            <Array as="points">
              <mxPoint x="1020" y="720" />
              <mxPoint x="1150" y="720" />
            </Array>
          </mxGeometry>
        </mxCell>
        <mxCell id="02ePOp9WBVK9enxZNh84-50" value="" style="endArrow=classic;startArrow=classic;html=1;rounded=0;entryX=0.5;entryY=1;entryDx=0;entryDy=0;exitX=0.75;exitY=0;exitDx=0;exitDy=0;" parent="1" source="02ePOp9WBVK9enxZNh84-41" target="02ePOp9WBVK9enxZNh84-40" edge="1">
          <mxGeometry width="50" height="50" relative="1" as="geometry">
            <mxPoint x="1130" y="780" as="sourcePoint" />
            <mxPoint x="1180" y="730" as="targetPoint" />
            <Array as="points">
              <mxPoint x="1210" y="720" />
              <mxPoint x="1340" y="720" />
            </Array>
          </mxGeometry>
        </mxCell>
        <mxCell id="02ePOp9WBVK9enxZNh84-51" value="" style="endArrow=classic;startArrow=classic;html=1;rounded=0;entryX=0.5;entryY=1;entryDx=0;entryDy=0;" parent="1" source="02ePOp9WBVK9enxZNh84-41" target="02ePOp9WBVK9enxZNh84-36" edge="1">
          <mxGeometry width="50" height="50" relative="1" as="geometry">
            <mxPoint x="1130" y="780" as="sourcePoint" />
            <mxPoint x="1180" y="730" as="targetPoint" />
          </mxGeometry>
        </mxCell>
        <mxCell id="02ePOp9WBVK9enxZNh84-54" value="" style="rounded=1;whiteSpace=wrap;html=1;fillColor=none;strokeColor=#009900;strokeWidth=5;" parent="1" vertex="1">
          <mxGeometry x="-80" y="950" width="160" height="240" as="geometry" />
        </mxCell>
        <mxCell id="02ePOp9WBVK9enxZNh84-55" value="all_node&lt;br&gt;_scripts.py" style="shape=note;whiteSpace=wrap;html=1;backgroundOutline=1;darkOpacity=0.05;strokeColor=#009900;" parent="1" vertex="1">
          <mxGeometry x="-50" y="1030" width="100" height="120" as="geometry" />
        </mxCell>
        <mxCell id="02ePOp9WBVK9enxZNh84-56" value="SCRIPTS" style="rounded=1;whiteSpace=wrap;html=1;strokeColor=#009900;strokeWidth=5;" parent="1" vertex="1">
          <mxGeometry x="-60" y="970" width="120" height="50" as="geometry" />
        </mxCell>
        <mxCell id="02ePOp9WBVK9enxZNh84-58" value="&lt;font style=&quot;font-size: 25px;&quot;&gt;NODE&lt;/font&gt;" style="rounded=1;whiteSpace=wrap;html=1;strokeWidth=5;strokeColor=#000000;" parent="1" vertex="1">
          <mxGeometry x="-50" y="840" width="110" height="60" as="geometry" />
        </mxCell>
        <mxCell id="ylHFpK_zeYIFlG54JJtC-7" value="" style="rounded=1;whiteSpace=wrap;html=1;fillColor=#333333;" parent="1" vertex="1">
          <mxGeometry x="2830" y="790" width="2020" height="470" as="geometry" />
        </mxCell>
        <mxCell id="ylHFpK_zeYIFlG54JJtC-8" value="" style="rounded=1;whiteSpace=wrap;html=1;fillColor=default;strokeColor=#009900;strokeWidth=5;" parent="1" vertex="1">
          <mxGeometry x="2860" y="920" width="1580" height="280" as="geometry" />
        </mxCell>
        <mxCell id="ylHFpK_zeYIFlG54JJtC-9" value="" style="rounded=1;whiteSpace=wrap;html=1;fillColor=none;strokeColor=#009900;strokeWidth=5;" parent="1" vertex="1">
          <mxGeometry x="4170" y="940" width="250" height="240" as="geometry" />
        </mxCell>
        <mxCell id="ylHFpK_zeYIFlG54JJtC-10" value="" style="rounded=1;whiteSpace=wrap;html=1;fillColor=none;strokeColor=#009900;strokeWidth=5;" parent="1" vertex="1">
          <mxGeometry x="3760" y="940" width="390" height="240" as="geometry" />
        </mxCell>
        <mxCell id="ylHFpK_zeYIFlG54JJtC-11" value="" style="rounded=1;whiteSpace=wrap;html=1;fillColor=none;strokeColor=#009900;strokeWidth=5;" parent="1" vertex="1">
          <mxGeometry x="3060" y="940" width="500" height="240" as="geometry" />
        </mxCell>
        <mxCell id="ylHFpK_zeYIFlG54JJtC-12" value="" style="rounded=1;whiteSpace=wrap;html=1;fillColor=none;strokeColor=#009900;strokeWidth=5;" parent="1" vertex="1">
          <mxGeometry x="3580" y="940" width="160" height="240" as="geometry" />
        </mxCell>
        <mxCell id="ylHFpK_zeYIFlG54JJtC-24" value="node_logger.py" style="whiteSpace=wrap;html=1;aspect=fixed;" parent="1" vertex="1">
          <mxGeometry x="3600" y="560" width="120" height="120" as="geometry" />
        </mxCell>
        <mxCell id="ylHFpK_zeYIFlG54JJtC-35" value="RAK3272S" style="rounded=1;whiteSpace=wrap;html=1;" parent="1" vertex="1">
          <mxGeometry x="4920" y="280" width="120" height="120" as="geometry" />
        </mxCell>
        <mxCell id="ylHFpK_zeYIFlG54JJtC-36" value="" style="shape=mxgraph.arrows2.wedgeArrowDashed2;html=1;bendable=0;startWidth=58.94736842105263;stepSize=15;rounded=0;entryX=1;entryY=0.5;entryDx=0;entryDy=0;" parent="1" target="ylHFpK_zeYIFlG54JJtC-35" edge="1">
          <mxGeometry width="100" height="100" relative="1" as="geometry">
            <mxPoint x="5161" y="340.03" as="sourcePoint" />
            <mxPoint x="4771" y="200.03" as="targetPoint" />
          </mxGeometry>
        </mxCell>
        <mxCell id="ylHFpK_zeYIFlG54JJtC-37" value="RAK3272S" style="rounded=1;whiteSpace=wrap;html=1;" parent="1" vertex="1">
          <mxGeometry x="4920" y="-120" width="120" height="120" as="geometry" />
        </mxCell>
        <mxCell id="ylHFpK_zeYIFlG54JJtC-38" value="" style="shape=mxgraph.arrows2.wedgeArrowDashed2;html=1;bendable=0;startWidth=58.94736842105263;stepSize=15;rounded=0;entryX=1;entryY=0.5;entryDx=0;entryDy=0;" parent="1" target="ylHFpK_zeYIFlG54JJtC-37" edge="1">
          <mxGeometry width="100" height="100" relative="1" as="geometry">
            <mxPoint x="5161" y="-59.97" as="sourcePoint" />
            <mxPoint x="4771" y="-199.97" as="targetPoint" />
          </mxGeometry>
        </mxCell>
        <mxCell id="ylHFpK_zeYIFlG54JJtC-48" value="" style="shape=link;html=1;rounded=0;width=17.36842105263158;entryX=0;entryY=0.5;entryDx=0;entryDy=0;exitX=1;exitY=0.5;exitDx=0;exitDy=0;" parent="1" target="ylHFpK_zeYIFlG54JJtC-37" edge="1">
          <mxGeometry width="100" relative="1" as="geometry">
            <mxPoint x="4841" y="-59.97" as="sourcePoint" />
            <mxPoint x="4731" y="250.02999999999997" as="targetPoint" />
          </mxGeometry>
        </mxCell>
        <mxCell id="ylHFpK_zeYIFlG54JJtC-49" value="" style="shape=link;html=1;rounded=0;width=17.36842105263158;exitX=1;exitY=0.5;exitDx=0;exitDy=0;entryX=0;entryY=0.5;entryDx=0;entryDy=0;" parent="1" target="ylHFpK_zeYIFlG54JJtC-35" edge="1">
          <mxGeometry width="100" relative="1" as="geometry">
            <mxPoint x="4841" y="340.03" as="sourcePoint" />
            <mxPoint x="4981" y="350.03" as="targetPoint" />
          </mxGeometry>
        </mxCell>
        <mxCell id="6yspxrlmjH6FVn7DVC8O-3" value="" style="edgeStyle=orthogonalEdgeStyle;rounded=0;orthogonalLoop=1;jettySize=auto;html=1;" parent="1" source="ylHFpK_zeYIFlG54JJtC-59" target="6yspxrlmjH6FVn7DVC8O-1" edge="1">
          <mxGeometry relative="1" as="geometry" />
        </mxCell>
        <mxCell id="ylHFpK_zeYIFlG54JJtC-59" value="node_sensor&lt;br&gt;_message_packer.py" style="whiteSpace=wrap;html=1;aspect=fixed;" parent="1" vertex="1">
          <mxGeometry x="3400" y="-120" width="120" height="120" as="geometry" />
        </mxCell>
        <mxCell id="ylHFpK_zeYIFlG54JJtC-137" value="" style="edgeStyle=orthogonalEdgeStyle;rounded=0;orthogonalLoop=1;jettySize=auto;html=1;" parent="1" source="ylHFpK_zeYIFlG54JJtC-71" target="ylHFpK_zeYIFlG54JJtC-59" edge="1">
          <mxGeometry relative="1" as="geometry" />
        </mxCell>
        <mxCell id="ylHFpK_zeYIFlG54JJtC-71" value="node_weather&lt;br&gt;_sampler.py" style="whiteSpace=wrap;html=1;aspect=fixed;" parent="1" vertex="1">
          <mxGeometry x="3200" y="-120" width="120" height="120" as="geometry" />
        </mxCell>
        <mxCell id="Bt0ZQPqKcpLA8-kfy0t2-85" style="edgeStyle=orthogonalEdgeStyle;rounded=0;orthogonalLoop=1;jettySize=auto;html=1;startArrow=classic;startFill=1;endArrow=none;" parent="1" edge="1">
          <mxGeometry relative="1" as="geometry">
            <mxPoint x="3320" y="160" as="targetPoint" />
            <Array as="points">
              <mxPoint x="4320" y="730" />
              <mxPoint x="3420" y="730" />
              <mxPoint x="3420" y="160" />
            </Array>
            <mxPoint x="4320" y="560" as="sourcePoint" />
          </mxGeometry>
        </mxCell>
        <mxCell id="ylHFpK_zeYIFlG54JJtC-84" value="initial_launch.py" style="whiteSpace=wrap;html=1;aspect=fixed;" parent="1" vertex="1">
          <mxGeometry x="4240" y="440" width="120" height="120" as="geometry" />
        </mxCell>
        <mxCell id="ylHFpK_zeYIFlG54JJtC-92" value="MAPS" style="rounded=1;whiteSpace=wrap;html=1;strokeColor=#009900;strokeWidth=5;" parent="1" vertex="1">
          <mxGeometry x="3260" y="960" width="120" height="40" as="geometry" />
        </mxCell>
        <mxCell id="ylHFpK_zeYIFlG54JJtC-93" value="node_registry&lt;br&gt;.json" style="shape=note;whiteSpace=wrap;html=1;backgroundOutline=1;darkOpacity=0.05;strokeColor=#009900;" parent="1" vertex="1">
          <mxGeometry x="4030" y="1040" width="100" height="120" as="geometry" />
        </mxCell>
        <mxCell id="ylHFpK_zeYIFlG54JJtC-94" value="gateway_registry&lt;br&gt;.json" style="shape=note;whiteSpace=wrap;html=1;backgroundOutline=1;darkOpacity=0.05;strokeColor=#009900;" parent="1" vertex="1">
          <mxGeometry x="3910" y="1040" width="100" height="120" as="geometry" />
        </mxCell>
        <mxCell id="ylHFpK_zeYIFlG54JJtC-95" value="time_sync&lt;br&gt;.json" style="shape=note;whiteSpace=wrap;html=1;backgroundOutline=1;darkOpacity=0.05;strokeColor=#009900;" parent="1" vertex="1">
          <mxGeometry x="3780" y="1040" width="100" height="120" as="geometry" />
        </mxCell>
        <mxCell id="ylHFpK_zeYIFlG54JJtC-96" value="event_type_map&lt;br&gt;.json" style="shape=note;whiteSpace=wrap;html=1;backgroundOutline=1;darkOpacity=0.05;strokeColor=#009900;" parent="1" vertex="1">
          <mxGeometry x="3080" y="1020" width="100" height="120" as="geometry" />
        </mxCell>
        <mxCell id="ylHFpK_zeYIFlG54JJtC-97" value="confidence_scale&lt;br&gt;_map.json" style="shape=note;whiteSpace=wrap;html=1;backgroundOutline=1;darkOpacity=0.05;strokeColor=#009900;" parent="1" vertex="1">
          <mxGeometry x="3200" y="1020" width="100" height="120" as="geometry" />
        </mxCell>
        <mxCell id="ylHFpK_zeYIFlG54JJtC-98" value="gps_binary_map&lt;br&gt;.json" style="shape=note;whiteSpace=wrap;html=1;backgroundOutline=1;darkOpacity=0.05;strokeColor=#009900;" parent="1" vertex="1">
          <mxGeometry x="3320" y="1020" width="100" height="120" as="geometry" />
        </mxCell>
        <mxCell id="ylHFpK_zeYIFlG54JJtC-99" value="taxonomy_map&lt;br&gt;.json" style="shape=note;whiteSpace=wrap;html=1;backgroundOutline=1;darkOpacity=0.05;strokeColor=#009900;" parent="1" vertex="1">
          <mxGeometry x="3440" y="1020" width="100" height="120" as="geometry" />
        </mxCell>
        <mxCell id="ylHFpK_zeYIFlG54JJtC-100" value="REGISTRIES" style="rounded=1;whiteSpace=wrap;html=1;strokeColor=#009900;strokeWidth=5;" parent="1" vertex="1">
          <mxGeometry x="3900" y="960" width="120" height="40" as="geometry" />
        </mxCell>
        <mxCell id="ylHFpK_zeYIFlG54JJtC-101" value="FIRMWARE/SOFTWARE" style="rounded=1;whiteSpace=wrap;html=1;strokeColor=#009900;strokeWidth=5;" parent="1" vertex="1">
          <mxGeometry x="4230" y="960" width="150" height="40" as="geometry" />
        </mxCell>
        <mxCell id="ylHFpK_zeYIFlG54JJtC-102" value="&lt;div&gt;raspberry_pi&lt;br&gt;_os.img&lt;/div&gt;&lt;div&gt;&lt;br&gt;&lt;/div&gt;" style="shape=note;whiteSpace=wrap;html=1;backgroundOutline=1;darkOpacity=0.05;strokeColor=#009900;" parent="1" vertex="1">
          <mxGeometry x="4190" y="1040" width="100" height="120" as="geometry" />
        </mxCell>
        <mxCell id="ylHFpK_zeYIFlG54JJtC-103" value="birdnet.img" style="shape=note;whiteSpace=wrap;html=1;backgroundOutline=1;darkOpacity=0.05;strokeColor=#009900;" parent="1" vertex="1">
          <mxGeometry x="4300" y="1040" width="100" height="120" as="geometry" />
        </mxCell>
        <mxCell id="ylHFpK_zeYIFlG54JJtC-104" value="MICRO SD STORAGE" style="rounded=1;whiteSpace=wrap;html=1;strokeColor=#009900;strokeWidth=5;" parent="1" vertex="1">
          <mxGeometry x="3680" y="860" width="120" height="60" as="geometry" />
        </mxCell>
        <mxCell id="ylHFpK_zeYIFlG54JJtC-105" value="STRUCTURED&lt;br&gt;PROTOCOL" style="rounded=1;whiteSpace=wrap;html=1;strokeColor=#009900;strokeWidth=5;" parent="1" vertex="1">
          <mxGeometry x="3600" y="950" width="120" height="50" as="geometry" />
        </mxCell>
        <mxCell id="ylHFpK_zeYIFlG54JJtC-106" value="event_sentence&lt;br&gt;_structure.json" style="shape=note;whiteSpace=wrap;html=1;backgroundOutline=1;darkOpacity=0.05;strokeColor=#009900;" parent="1" vertex="1">
          <mxGeometry x="3610" y="1040" width="100" height="120" as="geometry" />
        </mxCell>
        <mxCell id="ylHFpK_zeYIFlG54JJtC-107" value="" style="rounded=1;whiteSpace=wrap;html=1;" parent="1" vertex="1">
          <mxGeometry x="4480" y="880" width="320" height="320" as="geometry" />
        </mxCell>
        <mxCell id="ylHFpK_zeYIFlG54JJtC-108" value="Event" style="rhombus;whiteSpace=wrap;html=1;strokeWidth=5;strokeColor=#990099;" parent="1" vertex="1">
          <mxGeometry x="4530" y="1130" width="60" height="60" as="geometry" />
        </mxCell>
        <mxCell id="ylHFpK_zeYIFlG54JJtC-109" value="Event" style="rhombus;whiteSpace=wrap;html=1;strokeWidth=5;strokeColor=#FF0000;" parent="1" vertex="1">
          <mxGeometry x="4530" y="1050" width="60" height="60" as="geometry" />
        </mxCell>
        <mxCell id="ylHFpK_zeYIFlG54JJtC-110" value="Event" style="rhombus;whiteSpace=wrap;html=1;strokeWidth=5;strokeColor=#999900;" parent="1" vertex="1">
          <mxGeometry x="4530" y="970" width="60" height="60" as="geometry" />
        </mxCell>
        <mxCell id="ylHFpK_zeYIFlG54JJtC-111" value="LOCAL" style="rounded=1;whiteSpace=wrap;html=1;strokeColor=#009900;strokeWidth=5;" parent="1" vertex="1">
          <mxGeometry x="4500" y="900" width="120" height="40" as="geometry" />
        </mxCell>
        <mxCell id="ylHFpK_zeYIFlG54JJtC-112" value="Access to locally stored data&amp;nbsp;" style="text;html=1;align=center;verticalAlign=middle;whiteSpace=wrap;rounded=0;" parent="1" vertex="1">
          <mxGeometry x="4630" y="900" width="160" height="30" as="geometry" />
        </mxCell>
        <mxCell id="ylHFpK_zeYIFlG54JJtC-113" value="Hardware event" style="text;html=1;align=center;verticalAlign=middle;whiteSpace=wrap;rounded=0;" parent="1" vertex="1">
          <mxGeometry x="4660" y="980" width="100" height="30" as="geometry" />
        </mxCell>
        <mxCell id="ylHFpK_zeYIFlG54JJtC-114" value="Outbound LoRa event" style="text;html=1;align=center;verticalAlign=middle;whiteSpace=wrap;rounded=0;" parent="1" vertex="1">
          <mxGeometry x="4660" y="1140" width="120" height="30" as="geometry" />
        </mxCell>
        <mxCell id="ylHFpK_zeYIFlG54JJtC-115" value="Inbound LorRa event" style="text;html=1;align=center;verticalAlign=middle;whiteSpace=wrap;rounded=0;" parent="1" vertex="1">
          <mxGeometry x="4650" y="1060" width="130" height="30" as="geometry" />
        </mxCell>
        <mxCell id="ylHFpK_zeYIFlG54JJtC-116" value="EnviroPulse Node Script Logic&amp;nbsp; &amp;nbsp; &amp;nbsp; &amp;nbsp; &amp;nbsp; &amp;nbsp; &amp;nbsp; &amp;nbsp; &amp;nbsp; &amp;nbsp; &amp;nbsp; &amp;nbsp; V1.1" style="rounded=1;whiteSpace=wrap;html=1;" parent="1" vertex="1">
          <mxGeometry x="4480" y="820" width="320" height="40" as="geometry" />
        </mxCell>
        <mxCell id="ylHFpK_zeYIFlG54JJtC-128" value="" style="rounded=1;whiteSpace=wrap;html=1;fillColor=none;strokeColor=#009900;strokeWidth=5;" parent="1" vertex="1">
          <mxGeometry x="2880" y="940" width="160" height="240" as="geometry" />
        </mxCell>
        <mxCell id="ylHFpK_zeYIFlG54JJtC-129" value="all_node&lt;br&gt;_scripts.py" style="shape=note;whiteSpace=wrap;html=1;backgroundOutline=1;darkOpacity=0.05;strokeColor=#009900;" parent="1" vertex="1">
          <mxGeometry x="2910" y="1020" width="100" height="120" as="geometry" />
        </mxCell>
        <mxCell id="ylHFpK_zeYIFlG54JJtC-130" value="SCRIPTS" style="rounded=1;whiteSpace=wrap;html=1;strokeColor=#009900;strokeWidth=5;" parent="1" vertex="1">
          <mxGeometry x="2900" y="960" width="120" height="50" as="geometry" />
        </mxCell>
        <mxCell id="ylHFpK_zeYIFlG54JJtC-131" value="&lt;font style=&quot;font-size: 25px;&quot;&gt;NODE&lt;/font&gt;" style="rounded=1;whiteSpace=wrap;html=1;strokeWidth=5;strokeColor=#000000;" parent="1" vertex="1">
          <mxGeometry x="2900" y="830" width="110" height="60" as="geometry" />
        </mxCell>
        <mxCell id="ylHFpK_zeYIFlG54JJtC-153" value="" style="edgeStyle=orthogonalEdgeStyle;rounded=0;orthogonalLoop=1;jettySize=auto;html=1;endArrow=none;startFill=1;startArrow=classic;" parent="1" source="ylHFpK_zeYIFlG54JJtC-132" target="ylHFpK_zeYIFlG54JJtC-152" edge="1">
          <mxGeometry relative="1" as="geometry" />
        </mxCell>
        <mxCell id="lj8KxjjqQF5BW5D4Oaql-1" style="edgeStyle=orthogonalEdgeStyle;rounded=0;orthogonalLoop=1;jettySize=auto;html=1;" parent="1" source="ylHFpK_zeYIFlG54JJtC-132" target="ylHFpK_zeYIFlG54JJtC-139" edge="1">
          <mxGeometry relative="1" as="geometry" />
        </mxCell>
        <mxCell id="ylHFpK_zeYIFlG54JJtC-132" value="node_lora&lt;br&gt;_outbound_message&lt;br&gt;_packer.py" style="whiteSpace=wrap;html=1;aspect=fixed;" parent="1" vertex="1">
          <mxGeometry x="4360" y="280" width="120" height="120" as="geometry" />
        </mxCell>
        <mxCell id="ylHFpK_zeYIFlG54JJtC-133" value="node_bmp390&lt;br&gt;_driver.py" style="whiteSpace=wrap;html=1;aspect=fixed;" parent="1" vertex="1">
          <mxGeometry x="2760" y="-100" width="120" height="120" as="geometry" />
        </mxCell>
        <mxCell id="6yspxrlmjH6FVn7DVC8O-5" value="" style="edgeStyle=orthogonalEdgeStyle;rounded=0;orthogonalLoop=1;jettySize=auto;html=1;" parent="1" source="ylHFpK_zeYIFlG54JJtC-135" target="6yspxrlmjH6FVn7DVC8O-1" edge="1">
          <mxGeometry relative="1" as="geometry" />
        </mxCell>
        <mxCell id="ylHFpK_zeYIFlG54JJtC-135" value="node_heading&lt;br&gt;_wrapper.py" style="whiteSpace=wrap;html=1;aspect=fixed;" parent="1" vertex="1">
          <mxGeometry x="3600" y="-280" width="120" height="120" as="geometry" />
        </mxCell>
        <mxCell id="ylHFpK_zeYIFlG54JJtC-68" value="Weather" style="rhombus;whiteSpace=wrap;html=1;strokeWidth=5;strokeColor=#999900;" parent="1" vertex="1">
          <mxGeometry x="3340" y="-80" width="40" height="40" as="geometry" />
        </mxCell>
        <mxCell id="ylHFpK_zeYIFlG54JJtC-143" value="" style="edgeStyle=orthogonalEdgeStyle;rounded=0;orthogonalLoop=1;jettySize=auto;html=1;startArrow=classic;startFill=1;endArrow=none;" parent="1" source="ylHFpK_zeYIFlG54JJtC-139" target="ylHFpK_zeYIFlG54JJtC-24" edge="1">
          <mxGeometry relative="1" as="geometry" />
        </mxCell>
        <mxCell id="Bt0ZQPqKcpLA8-kfy0t2-83" style="edgeStyle=orthogonalEdgeStyle;rounded=0;orthogonalLoop=1;jettySize=auto;html=1;entryX=0;entryY=0.5;entryDx=0;entryDy=0;exitX=1;exitY=0.75;exitDx=0;exitDy=0;startArrow=classic;startFill=1;endArrow=none;" parent="1" source="ylHFpK_zeYIFlG54JJtC-139" target="ylHFpK_zeYIFlG54JJtC-84" edge="1">
          <mxGeometry relative="1" as="geometry">
            <mxPoint x="3800" y="440" as="sourcePoint" />
            <Array as="points">
              <mxPoint x="4200" y="410" />
              <mxPoint x="4200" y="500" />
            </Array>
          </mxGeometry>
        </mxCell>
        <mxCell id="Bt0ZQPqKcpLA8-kfy0t2-113" style="edgeStyle=orthogonalEdgeStyle;rounded=0;orthogonalLoop=1;jettySize=auto;html=1;entryX=0;entryY=0.5;entryDx=0;entryDy=0;exitX=1.002;exitY=0.855;exitDx=0;exitDy=0;exitPerimeter=0;endArrow=none;endFill=1;startArrow=classic;startFill=1;" parent="1" source="ylHFpK_zeYIFlG54JJtC-139" target="Bt0ZQPqKcpLA8-kfy0t2-112" edge="1">
          <mxGeometry relative="1" as="geometry">
            <Array as="points">
              <mxPoint x="4000" y="440" />
              <mxPoint x="4000" y="500" />
            </Array>
          </mxGeometry>
        </mxCell>
        <mxCell id="Fu5X8Zu1OF-X1qIXz92t-7" style="edgeStyle=orthogonalEdgeStyle;rounded=0;orthogonalLoop=1;jettySize=auto;html=1;entryX=0.5;entryY=1;entryDx=0;entryDy=0;endArrow=none;startFill=1;startArrow=classic;" parent="1" source="ylHFpK_zeYIFlG54JJtC-139" target="Fu5X8Zu1OF-X1qIXz92t-1" edge="1">
          <mxGeometry relative="1" as="geometry">
            <Array as="points">
              <mxPoint x="3980" y="240" />
            </Array>
          </mxGeometry>
        </mxCell>
        <mxCell id="ylHFpK_zeYIFlG54JJtC-139" value="node_dispatch.py" style="whiteSpace=wrap;html=1;aspect=fixed;" parent="1" vertex="1">
          <mxGeometry x="3520" y="200" width="280" height="280" as="geometry" />
        </mxCell>
        <mxCell id="ylHFpK_zeYIFlG54JJtC-142" value="Weather" style="ellipse;whiteSpace=wrap;html=1;aspect=fixed;strokeColor=light-dark(#000000,#999900);strokeWidth=5;" parent="1" vertex="1">
          <mxGeometry x="3530" y="20" width="40" height="40" as="geometry" />
        </mxCell>
        <mxCell id="ylHFpK_zeYIFlG54JJtC-147" value="MAPS" style="rounded=1;whiteSpace=wrap;html=1;strokeColor=#009900;strokeWidth=5;" parent="1" vertex="1">
          <mxGeometry x="4530" y="80" width="120" height="40" as="geometry" />
        </mxCell>
        <mxCell id="ylHFpK_zeYIFlG54JJtC-152" value="node_send_over&lt;br&gt;_lora.py" style="whiteSpace=wrap;html=1;aspect=fixed;" parent="1" vertex="1">
          <mxGeometry x="4720" y="280" width="120" height="120" as="geometry" />
        </mxCell>
        <mxCell id="ylHFpK_zeYIFlG54JJtC-161" style="edgeStyle=orthogonalEdgeStyle;rounded=0;orthogonalLoop=1;jettySize=auto;html=1;" parent="1" source="ylHFpK_zeYIFlG54JJtC-160" edge="1">
          <mxGeometry relative="1" as="geometry">
            <mxPoint x="3640" y="-280" as="targetPoint" />
            <Array as="points">
              <mxPoint x="3460" y="-320" />
              <mxPoint x="3640" y="-320" />
            </Array>
          </mxGeometry>
        </mxCell>
        <mxCell id="Bt0ZQPqKcpLA8-kfy0t2-99" style="edgeStyle=orthogonalEdgeStyle;rounded=0;orthogonalLoop=1;jettySize=auto;html=1;entryX=0.5;entryY=0;entryDx=0;entryDy=0;" parent="1" source="ylHFpK_zeYIFlG54JJtC-162" target="ylHFpK_zeYIFlG54JJtC-135" edge="1">
          <mxGeometry relative="1" as="geometry" />
        </mxCell>
        <mxCell id="ylHFpK_zeYIFlG54JJtC-162" value="node_registries&lt;br&gt;_manager.py" style="whiteSpace=wrap;html=1;aspect=fixed;" parent="1" vertex="1">
          <mxGeometry x="3600" y="-480" width="120" height="120" as="geometry" />
        </mxCell>
        <mxCell id="Bt0ZQPqKcpLA8-kfy0t2-100" value="" style="edgeStyle=orthogonalEdgeStyle;rounded=0;orthogonalLoop=1;jettySize=auto;html=1;" parent="1" source="ylHFpK_zeYIFlG54JJtC-163" target="ylHFpK_zeYIFlG54JJtC-162" edge="1">
          <mxGeometry relative="1" as="geometry" />
        </mxCell>
        <mxCell id="ylHFpK_zeYIFlG54JJtC-163" value="REGISTRIES" style="rounded=1;whiteSpace=wrap;html=1;strokeColor=#009900;strokeWidth=5;" parent="1" vertex="1">
          <mxGeometry x="3600" y="-600" width="120" height="40" as="geometry" />
        </mxCell>
        <mxCell id="ylHFpK_zeYIFlG54JJtC-171" style="edgeStyle=orthogonalEdgeStyle;rounded=0;orthogonalLoop=1;jettySize=auto;html=1;entryX=0.5;entryY=1;entryDx=0;entryDy=0;" parent="1" source="ylHFpK_zeYIFlG54JJtC-170" target="ylHFpK_zeYIFlG54JJtC-59" edge="1">
          <mxGeometry relative="1" as="geometry" />
        </mxCell>
        <mxCell id="ylHFpK_zeYIFlG54JJtC-170" value="birdnet_edit.py" style="whiteSpace=wrap;html=1;aspect=fixed;" parent="1" vertex="1">
          <mxGeometry x="3200" y="440" width="120" height="120" as="geometry" />
        </mxCell>
        <mxCell id="ylHFpK_zeYIFlG54JJtC-172" value="Avis" style="rhombus;whiteSpace=wrap;html=1;strokeWidth=5;strokeColor=#999900;" parent="1" vertex="1">
          <mxGeometry x="3340" y="480" width="40" height="40" as="geometry" />
        </mxCell>
        <mxCell id="ylHFpK_zeYIFlG54JJtC-173" value="Avis Lite" style="ellipse;whiteSpace=wrap;html=1;aspect=fixed;strokeColor=light-dark(#000000,#999900);strokeWidth=5;" parent="1" vertex="1">
          <mxGeometry x="3580" y="20" width="40" height="40" as="geometry" />
        </mxCell>
        <mxCell id="ylHFpK_zeYIFlG54JJtC-174" value="Avis TDOA" style="ellipse;whiteSpace=wrap;html=1;aspect=fixed;strokeColor=light-dark(#000000,#999900);strokeWidth=5;" parent="1" vertex="1">
          <mxGeometry x="3580" y="80" width="40" height="40" as="geometry" />
        </mxCell>
        <mxCell id="Bt0ZQPqKcpLA8-kfy0t2-44" style="edgeStyle=orthogonalEdgeStyle;rounded=0;orthogonalLoop=1;jettySize=auto;html=1;entryX=0;entryY=0.5;entryDx=0;entryDy=0;exitX=0.75;exitY=0;exitDx=0;exitDy=0;" parent="1" source="Bt0ZQPqKcpLA8-kfy0t2-90" target="Bt0ZQPqKcpLA8-kfy0t2-45" edge="1">
          <mxGeometry relative="1" as="geometry">
            <Array as="points">
              <mxPoint x="3050" y="-120" />
              <mxPoint x="3160" y="-120" />
              <mxPoint x="3160" y="-420" />
            </Array>
          </mxGeometry>
        </mxCell>
        <mxCell id="Bt0ZQPqKcpLA8-kfy0t2-30" value="node_telemetry.py" style="whiteSpace=wrap;html=1;aspect=fixed;" parent="1" vertex="1">
          <mxGeometry x="3200" y="80" width="120" height="120" as="geometry" />
        </mxCell>
        <mxCell id="Bt0ZQPqKcpLA8-kfy0t2-95" style="edgeStyle=orthogonalEdgeStyle;rounded=0;orthogonalLoop=1;jettySize=auto;html=1;entryX=-0.008;entryY=0.833;entryDx=0;entryDy=0;entryPerimeter=0;shape=link;width=19.77777777777778;" parent="1" source="Bt0ZQPqKcpLA8-kfy0t2-31" target="Bt0ZQPqKcpLA8-kfy0t2-90" edge="1">
          <mxGeometry relative="1" as="geometry">
            <mxPoint x="2950" y="80" as="targetPoint" />
            <Array as="points">
              <mxPoint x="2920" y="120" />
              <mxPoint x="2920" y="80" />
            </Array>
          </mxGeometry>
        </mxCell>
        <mxCell id="Bt0ZQPqKcpLA8-kfy0t2-31" value="node_gps_driver.py" style="whiteSpace=wrap;html=1;aspect=fixed;" parent="1" vertex="1">
          <mxGeometry x="2760" y="60" width="120" height="120" as="geometry" />
        </mxCell>
        <mxCell id="Bt0ZQPqKcpLA8-kfy0t2-32" value="node_gps&lt;br&gt;_calibrator.py" style="whiteSpace=wrap;html=1;aspect=fixed;" parent="1" vertex="1">
          <mxGeometry x="3280" y="280" width="120" height="120" as="geometry" />
        </mxCell>
        <mxCell id="Bt0ZQPqKcpLA8-kfy0t2-35" style="edgeStyle=orthogonalEdgeStyle;rounded=0;orthogonalLoop=1;jettySize=auto;html=1;" parent="1" source="Bt0ZQPqKcpLA8-kfy0t2-30" edge="1">
          <mxGeometry relative="1" as="geometry">
            <mxPoint x="3420" as="targetPoint" />
            <Array as="points">
              <mxPoint x="3420" y="120" />
              <mxPoint x="3420" />
            </Array>
          </mxGeometry>
        </mxCell>
        <mxCell id="Bt0ZQPqKcpLA8-kfy0t2-94" style="edgeStyle=orthogonalEdgeStyle;rounded=0;orthogonalLoop=1;jettySize=auto;html=1;entryX=0.5;entryY=1;entryDx=0;entryDy=0;shape=link;width=19.925925925925927;" parent="1" source="Bt0ZQPqKcpLA8-kfy0t2-36" target="Bt0ZQPqKcpLA8-kfy0t2-90" edge="1">
          <mxGeometry relative="1" as="geometry" />
        </mxCell>
        <mxCell id="Bt0ZQPqKcpLA8-kfy0t2-36" value="node_pps_syc.py" style="whiteSpace=wrap;html=1;aspect=fixed;" parent="1" vertex="1">
          <mxGeometry x="2760" y="220" width="120" height="120" as="geometry" />
        </mxCell>
        <mxCell id="Bt0ZQPqKcpLA8-kfy0t2-38" style="edgeStyle=orthogonalEdgeStyle;rounded=0;orthogonalLoop=1;jettySize=auto;html=1;exitX=0.667;exitY=0;exitDx=0;exitDy=0;exitPerimeter=0;" parent="1" source="Bt0ZQPqKcpLA8-kfy0t2-32" edge="1">
          <mxGeometry relative="1" as="geometry">
            <mxPoint x="3270" y="270" as="sourcePoint" />
            <mxPoint x="3280" y="200" as="targetPoint" />
          </mxGeometry>
        </mxCell>
        <mxCell id="Bt0ZQPqKcpLA8-kfy0t2-39" value="Telemetry" style="rhombus;whiteSpace=wrap;html=1;strokeWidth=5;strokeColor=#999900;" parent="1" vertex="1">
          <mxGeometry x="3350" y="100" width="40" height="40" as="geometry" />
        </mxCell>
        <mxCell id="Bt0ZQPqKcpLA8-kfy0t2-40" value="PPS" style="rhombus;whiteSpace=wrap;html=1;strokeWidth=5;strokeColor=#999900;" parent="1" vertex="1">
          <mxGeometry x="3070" y="-140" width="40" height="40" as="geometry" />
        </mxCell>
        <mxCell id="Bt0ZQPqKcpLA8-kfy0t2-41" value="Telemetry" style="ellipse;whiteSpace=wrap;html=1;aspect=fixed;strokeColor=light-dark(#000000,#999900);strokeWidth=5;" parent="1" vertex="1">
          <mxGeometry x="3530" y="80" width="40" height="40" as="geometry" />
        </mxCell>
        <mxCell id="Bt0ZQPqKcpLA8-kfy0t2-46" style="edgeStyle=orthogonalEdgeStyle;rounded=0;orthogonalLoop=1;jettySize=auto;html=1;" parent="1" source="Bt0ZQPqKcpLA8-kfy0t2-45" edge="1">
          <mxGeometry relative="1" as="geometry">
            <mxPoint x="3400" y="-420" as="targetPoint" />
          </mxGeometry>
        </mxCell>
        <mxCell id="Bt0ZQPqKcpLA8-kfy0t2-45" value="node_pps&lt;div&gt;_manager.py&lt;/div&gt;" style="whiteSpace=wrap;html=1;aspect=fixed;" parent="1" vertex="1">
          <mxGeometry x="3200" y="-480" width="120" height="120" as="geometry" />
        </mxCell>
        <mxCell id="Bt0ZQPqKcpLA8-kfy0t2-50" style="edgeStyle=orthogonalEdgeStyle;rounded=0;orthogonalLoop=1;jettySize=auto;html=1;entryX=1;entryY=0.5;entryDx=0;entryDy=0;" parent="1" source="Bt0ZQPqKcpLA8-kfy0t2-51" target="Bt0ZQPqKcpLA8-kfy0t2-57" edge="1">
          <mxGeometry relative="1" as="geometry" />
        </mxCell>
        <mxCell id="Bt0ZQPqKcpLA8-kfy0t2-51" value="node_recieve_over&lt;br&gt;_lora.py" style="whiteSpace=wrap;html=1;aspect=fixed;" parent="1" vertex="1">
          <mxGeometry x="4720" y="-120" width="120" height="120" as="geometry" />
        </mxCell>
        <mxCell id="Bt0ZQPqKcpLA8-kfy0t2-53" style="edgeStyle=orthogonalEdgeStyle;rounded=0;orthogonalLoop=1;jettySize=auto;html=1;entryX=1;entryY=0.5;entryDx=0;entryDy=0;exitX=0;exitY=0.5;exitDx=0;exitDy=0;" parent="1" source="Bt0ZQPqKcpLA8-kfy0t2-57" target="Bt0ZQPqKcpLA8-kfy0t2-55" edge="1">
          <mxGeometry relative="1" as="geometry">
            <mxPoint x="4350" y="-60" as="sourcePoint" />
          </mxGeometry>
        </mxCell>
        <mxCell id="lj8KxjjqQF5BW5D4Oaql-7" value="" style="edgeStyle=orthogonalEdgeStyle;rounded=0;orthogonalLoop=1;jettySize=auto;html=1;" parent="1" source="Bt0ZQPqKcpLA8-kfy0t2-54" target="Bt0ZQPqKcpLA8-kfy0t2-57" edge="1">
          <mxGeometry relative="1" as="geometry" />
        </mxCell>
        <mxCell id="Bt0ZQPqKcpLA8-kfy0t2-54" value="node_sanity&lt;br&gt;_check.py" style="whiteSpace=wrap;html=1;aspect=fixed;" parent="1" vertex="1">
          <mxGeometry x="4360" y="-280" width="120" height="120" as="geometry" />
        </mxCell>
        <mxCell id="6yspxrlmjH6FVn7DVC8O-4" value="" style="edgeStyle=orthogonalEdgeStyle;rounded=0;orthogonalLoop=1;jettySize=auto;html=1;" parent="1" source="Bt0ZQPqKcpLA8-kfy0t2-55" target="6yspxrlmjH6FVn7DVC8O-1" edge="1">
          <mxGeometry relative="1" as="geometry" />
        </mxCell>
        <mxCell id="Bt0ZQPqKcpLA8-kfy0t2-55" value="node_inbound_lora&lt;br&gt;_message_packer.py" style="whiteSpace=wrap;html=1;aspect=fixed;" parent="1" vertex="1">
          <mxGeometry x="3800" y="-120" width="120" height="120" as="geometry" />
        </mxCell>
        <mxCell id="Bt0ZQPqKcpLA8-kfy0t2-57" value="node__message&lt;div&gt;_decoder.py&lt;/div&gt;" style="whiteSpace=wrap;html=1;aspect=fixed;" parent="1" vertex="1">
          <mxGeometry x="4360" y="-120" width="120" height="120" as="geometry" />
        </mxCell>
        <mxCell id="ylHFpK_zeYIFlG54JJtC-160" value="node_time.py" style="whiteSpace=wrap;html=1;aspect=fixed;" parent="1" vertex="1">
          <mxGeometry x="3400" y="-480" width="120" height="120" as="geometry" />
        </mxCell>
        <mxCell id="Bt0ZQPqKcpLA8-kfy0t2-67" value="Initial Launch" style="rhombus;whiteSpace=wrap;html=1;strokeWidth=5;strokeColor=#FF0000;" parent="1" vertex="1">
          <mxGeometry x="4050" y="-110" width="40" height="40" as="geometry" />
        </mxCell>
        <mxCell id="Bt0ZQPqKcpLA8-kfy0t2-68" value="Change&lt;br&gt;Mode" style="rhombus;whiteSpace=wrap;html=1;strokeWidth=5;strokeColor=#FF0000;" parent="1" vertex="1">
          <mxGeometry x="4000" y="-110" width="40" height="40" as="geometry" />
        </mxCell>
        <mxCell id="Bt0ZQPqKcpLA8-kfy0t2-69" value="Telemetry Update" style="rhombus;whiteSpace=wrap;html=1;strokeWidth=5;strokeColor=#FF0000;" parent="1" vertex="1">
          <mxGeometry x="4100" y="-110" width="40" height="40" as="geometry" />
        </mxCell>
        <mxCell id="Bt0ZQPqKcpLA8-kfy0t2-70" value="Error" style="rhombus;whiteSpace=wrap;html=1;strokeWidth=5;strokeColor=#FF8000;" parent="1" vertex="1">
          <mxGeometry x="4000" y="-50" width="40" height="40" as="geometry" />
        </mxCell>
        <mxCell id="Bt0ZQPqKcpLA8-kfy0t2-71" value="ACK" style="rhombus;whiteSpace=wrap;html=1;strokeWidth=5;strokeColor=#FF0000;" parent="1" vertex="1">
          <mxGeometry x="4050" y="-50" width="40" height="40" as="geometry" />
        </mxCell>
        <mxCell id="Bt0ZQPqKcpLA8-kfy0t2-73" value="Change Mode" style="ellipse;whiteSpace=wrap;html=1;aspect=fixed;strokeColor=light-dark(#000000, #ff0000);strokeWidth=5;" parent="1" vertex="1">
          <mxGeometry x="3730" y="140" width="40" height="40" as="geometry" />
        </mxCell>
        <mxCell id="Bt0ZQPqKcpLA8-kfy0t2-74" value="Initial Launch" style="ellipse;whiteSpace=wrap;html=1;aspect=fixed;strokeColor=light-dark(#000000, #ff0000);strokeWidth=5;" parent="1" vertex="1">
          <mxGeometry x="3780" y="140" width="40" height="40" as="geometry" />
        </mxCell>
        <mxCell id="Bt0ZQPqKcpLA8-kfy0t2-76" value="Telemetry Update" style="ellipse;whiteSpace=wrap;html=1;aspect=fixed;strokeColor=light-dark(#000000, #ff0000);strokeWidth=5;" parent="1" vertex="1">
          <mxGeometry x="3780" y="80" width="40" height="40" as="geometry" />
        </mxCell>
        <mxCell id="Bt0ZQPqKcpLA8-kfy0t2-77" value="Error" style="ellipse;whiteSpace=wrap;html=1;aspect=fixed;strokeColor=light-dark(#000000,#FF8000);strokeWidth=5;" parent="1" vertex="1">
          <mxGeometry x="3680" y="80" width="40" height="40" as="geometry" />
        </mxCell>
        <mxCell id="Bt0ZQPqKcpLA8-kfy0t2-78" value="ACK" style="ellipse;whiteSpace=wrap;html=1;aspect=fixed;strokeColor=light-dark(#000000, #ff0000);strokeWidth=5;" parent="1" vertex="1">
          <mxGeometry x="3730" y="80" width="40" height="40" as="geometry" />
        </mxCell>
        <mxCell id="Bt0ZQPqKcpLA8-kfy0t2-84" value="Initial Launch" style="ellipse;whiteSpace=wrap;html=1;aspect=fixed;strokeColor=light-dark(#000000, #ff0000);strokeWidth=5;" parent="1" vertex="1">
          <mxGeometry x="4180" y="440" width="40" height="40" as="geometry" />
        </mxCell>
        <mxCell id="Bt0ZQPqKcpLA8-kfy0t2-86" value="Telemetry" style="rhombus;whiteSpace=wrap;html=1;strokeWidth=5;strokeColor=#999900;" parent="1" vertex="1">
          <mxGeometry x="4020" y="710" width="40" height="40" as="geometry" />
        </mxCell>
        <mxCell id="Bt0ZQPqKcpLA8-kfy0t2-93" style="edgeStyle=orthogonalEdgeStyle;rounded=0;orthogonalLoop=1;jettySize=auto;html=1;shape=link;width=19.247311827956988;" parent="1" source="Bt0ZQPqKcpLA8-kfy0t2-89" target="Bt0ZQPqKcpLA8-kfy0t2-90" edge="1">
          <mxGeometry relative="1" as="geometry" />
        </mxCell>
        <mxCell id="Bt0ZQPqKcpLA8-kfy0t2-89" value="node_sht31&lt;br&gt;_driver.py" style="whiteSpace=wrap;html=1;aspect=fixed;" parent="1" vertex="1">
          <mxGeometry x="2760" y="-260" width="120" height="120" as="geometry" />
        </mxCell>
        <mxCell id="Bt0ZQPqKcpLA8-kfy0t2-91" style="edgeStyle=orthogonalEdgeStyle;rounded=0;orthogonalLoop=1;jettySize=auto;html=1;entryX=0;entryY=0.5;entryDx=0;entryDy=0;" parent="1" source="Bt0ZQPqKcpLA8-kfy0t2-90" target="ylHFpK_zeYIFlG54JJtC-71" edge="1">
          <mxGeometry relative="1" as="geometry">
            <Array as="points">
              <mxPoint x="3120" />
              <mxPoint x="3120" y="-60" />
            </Array>
          </mxGeometry>
        </mxCell>
        <mxCell id="Bt0ZQPqKcpLA8-kfy0t2-92" style="edgeStyle=orthogonalEdgeStyle;rounded=0;orthogonalLoop=1;jettySize=auto;html=1;entryX=0;entryY=0.5;entryDx=0;entryDy=0;" parent="1" source="Bt0ZQPqKcpLA8-kfy0t2-90" target="Bt0ZQPqKcpLA8-kfy0t2-30" edge="1">
          <mxGeometry relative="1" as="geometry">
            <Array as="points">
              <mxPoint x="3120" y="80" />
              <mxPoint x="3120" y="140" />
            </Array>
          </mxGeometry>
        </mxCell>
        <mxCell id="Bt0ZQPqKcpLA8-kfy0t2-90" value="node_hardware&lt;br&gt;_manager.py" style="whiteSpace=wrap;html=1;aspect=fixed;" parent="1" vertex="1">
          <mxGeometry x="2960" y="-20" width="120" height="120" as="geometry" />
        </mxCell>
        <mxCell id="Bt0ZQPqKcpLA8-kfy0t2-96" style="edgeStyle=orthogonalEdgeStyle;rounded=0;orthogonalLoop=1;jettySize=auto;html=1;entryX=-0.003;entryY=0.169;entryDx=0;entryDy=0;entryPerimeter=0;shape=link;width=18.172043010752684;" parent="1" source="ylHFpK_zeYIFlG54JJtC-133" target="Bt0ZQPqKcpLA8-kfy0t2-90" edge="1">
          <mxGeometry relative="1" as="geometry">
            <Array as="points">
              <mxPoint x="2920" y="-40" />
              <mxPoint x="2920" />
            </Array>
          </mxGeometry>
        </mxCell>
        <mxCell id="Bt0ZQPqKcpLA8-kfy0t2-97" value="node_altitude&lt;br&gt;_calibrator.py" style="whiteSpace=wrap;html=1;aspect=fixed;" parent="1" vertex="1">
          <mxGeometry x="3120" y="280" width="120" height="120" as="geometry" />
        </mxCell>
        <mxCell id="Bt0ZQPqKcpLA8-kfy0t2-98" style="edgeStyle=orthogonalEdgeStyle;rounded=0;orthogonalLoop=1;jettySize=auto;html=1;entryX=0.333;entryY=1;entryDx=0;entryDy=0;entryPerimeter=0;" parent="1" source="Bt0ZQPqKcpLA8-kfy0t2-97" target="Bt0ZQPqKcpLA8-kfy0t2-30" edge="1">
          <mxGeometry relative="1" as="geometry">
            <Array as="points">
              <mxPoint x="3180" y="240" />
              <mxPoint x="3240" y="240" />
            </Array>
          </mxGeometry>
        </mxCell>
        <mxCell id="Bt0ZQPqKcpLA8-kfy0t2-104" value="" style="edgeStyle=orthogonalEdgeStyle;rounded=0;orthogonalLoop=1;jettySize=auto;html=1;" parent="1" source="Bt0ZQPqKcpLA8-kfy0t2-101" target="ylHFpK_zeYIFlG54JJtC-84" edge="1">
          <mxGeometry relative="1" as="geometry" />
        </mxCell>
        <mxCell id="Bt0ZQPqKcpLA8-kfy0t2-101" value="node_registries&lt;br&gt;_manager.py" style="whiteSpace=wrap;html=1;aspect=fixed;" parent="1" vertex="1">
          <mxGeometry x="4440" y="440" width="120" height="120" as="geometry" />
        </mxCell>
        <mxCell id="Bt0ZQPqKcpLA8-kfy0t2-102" value="" style="edgeStyle=orthogonalEdgeStyle;rounded=0;orthogonalLoop=1;jettySize=auto;html=1;" parent="1" source="Bt0ZQPqKcpLA8-kfy0t2-103" target="Bt0ZQPqKcpLA8-kfy0t2-101" edge="1">
          <mxGeometry relative="1" as="geometry" />
        </mxCell>
        <mxCell id="Bt0ZQPqKcpLA8-kfy0t2-103" value="REGISTRIES" style="rounded=1;whiteSpace=wrap;html=1;strokeColor=#009900;strokeWidth=5;" parent="1" vertex="1">
          <mxGeometry x="4640" y="480" width="120" height="40" as="geometry" />
        </mxCell>
        <mxCell id="Bt0ZQPqKcpLA8-kfy0t2-105" style="edgeStyle=orthogonalEdgeStyle;rounded=0;orthogonalLoop=1;jettySize=auto;html=1;entryX=0.833;entryY=1;entryDx=0;entryDy=0;entryPerimeter=0;startArrow=classic;startFill=1;endArrow=none;endFill=1;" parent="1" target="ylHFpK_zeYIFlG54JJtC-59" edge="1">
          <mxGeometry relative="1" as="geometry">
            <Array as="points">
              <mxPoint x="4280" y="700" />
              <mxPoint x="3500" y="700" />
            </Array>
            <mxPoint x="4280" y="560" as="sourcePoint" />
          </mxGeometry>
        </mxCell>
        <mxCell id="Bt0ZQPqKcpLA8-kfy0t2-106" value="Startup ACK" style="rhombus;whiteSpace=wrap;html=1;strokeWidth=5;strokeColor=#FF8000;" parent="1" vertex="1">
          <mxGeometry x="3980" y="680" width="40" height="40" as="geometry" />
        </mxCell>
        <mxCell id="Bt0ZQPqKcpLA8-kfy0t2-107" value="Startup ACK" style="ellipse;whiteSpace=wrap;html=1;aspect=fixed;strokeColor=light-dark(#000000,#FF8000);strokeWidth=5;" parent="1" vertex="1">
          <mxGeometry x="3530" y="140" width="40" height="40" as="geometry" />
        </mxCell>
        <mxCell id="Bt0ZQPqKcpLA8-kfy0t2-110" value="" style="edgeStyle=orthogonalEdgeStyle;rounded=0;orthogonalLoop=1;jettySize=auto;html=1;" parent="1" source="Bt0ZQPqKcpLA8-kfy0t2-109" target="ylHFpK_zeYIFlG54JJtC-160" edge="1">
          <mxGeometry relative="1" as="geometry" />
        </mxCell>
        <mxCell id="Bt0ZQPqKcpLA8-kfy0t2-109" value="node_time_mode&lt;br&gt;_manager.py" style="whiteSpace=wrap;html=1;aspect=fixed;" parent="1" vertex="1">
          <mxGeometry x="3400" y="-680" width="120" height="120" as="geometry" />
        </mxCell>
        <mxCell id="Fu5X8Zu1OF-X1qIXz92t-25" style="edgeStyle=orthogonalEdgeStyle;rounded=0;orthogonalLoop=1;jettySize=auto;html=1;exitX=0.5;exitY=1;exitDx=0;exitDy=0;endArrow=none;startFill=1;startArrow=classic;" parent="1" source="Bt0ZQPqKcpLA8-kfy0t2-112" target="Fu5X8Zu1OF-X1qIXz92t-24" edge="1">
          <mxGeometry relative="1" as="geometry" />
        </mxCell>
        <mxCell id="Bt0ZQPqKcpLA8-kfy0t2-112" value="node_mode&lt;br&gt;_manger.py" style="whiteSpace=wrap;html=1;aspect=fixed;" parent="1" vertex="1">
          <mxGeometry x="4040" y="440" width="120" height="120" as="geometry" />
        </mxCell>
        <mxCell id="Bt0ZQPqKcpLA8-kfy0t2-114" value="Change Mode" style="ellipse;whiteSpace=wrap;html=1;aspect=fixed;strokeColor=light-dark(#000000, #ff0000);strokeWidth=5;" parent="1" vertex="1">
          <mxGeometry x="3980" y="450" width="40" height="40" as="geometry" />
        </mxCell>
        <mxCell id="Fu5X8Zu1OF-X1qIXz92t-1" value="node_ ack&lt;br&gt;_manager.py" style="whiteSpace=wrap;html=1;aspect=fixed;" parent="1" vertex="1">
          <mxGeometry x="3920" y="80" width="120" height="120" as="geometry" />
        </mxCell>
        <mxCell id="Fu5X8Zu1OF-X1qIXz92t-3" value="ACK" style="ellipse;whiteSpace=wrap;html=1;aspect=fixed;strokeColor=light-dark(#000000,#FF8000);strokeWidth=5;" parent="1" vertex="1">
          <mxGeometry x="3680" y="140" width="40" height="40" as="geometry" />
        </mxCell>
        <mxCell id="Fu5X8Zu1OF-X1qIXz92t-9" value="Error" style="ellipse;whiteSpace=wrap;html=1;aspect=fixed;strokeColor=light-dark(#000000,#FF8000);strokeWidth=5;" parent="1" vertex="1">
          <mxGeometry x="3860" y="220" width="40" height="40" as="geometry" />
        </mxCell>
        <mxCell id="Fu5X8Zu1OF-X1qIXz92t-10" value="ACK" style="ellipse;whiteSpace=wrap;html=1;aspect=fixed;strokeColor=light-dark(#000000, #ff0000);strokeWidth=5;" parent="1" vertex="1">
          <mxGeometry x="3910" y="220" width="40" height="40" as="geometry" />
        </mxCell>
        <mxCell id="lj8KxjjqQF5BW5D4Oaql-2" value="" style="edgeStyle=orthogonalEdgeStyle;rounded=0;orthogonalLoop=1;jettySize=auto;html=1;" parent="1" source="Fu5X8Zu1OF-X1qIXz92t-15" target="ylHFpK_zeYIFlG54JJtC-135" edge="1">
          <mxGeometry relative="1" as="geometry" />
        </mxCell>
        <mxCell id="Fu5X8Zu1OF-X1qIXz92t-15" value="node_unique_id&lt;br&gt;_manager.py" style="whiteSpace=wrap;html=1;aspect=fixed;" parent="1" vertex="1">
          <mxGeometry x="3400" y="-280" width="120" height="120" as="geometry" />
        </mxCell>
        <mxCell id="Fu5X8Zu1OF-X1qIXz92t-18" value="" style="edgeStyle=orthogonalEdgeStyle;rounded=0;orthogonalLoop=1;jettySize=auto;html=1;" parent="1" source="Fu5X8Zu1OF-X1qIXz92t-17" target="Fu5X8Zu1OF-X1qIXz92t-1" edge="1">
          <mxGeometry relative="1" as="geometry" />
        </mxCell>
        <mxCell id="Fu5X8Zu1OF-X1qIXz92t-17" value="node_unique_id&lt;br&gt;_manager.py" style="whiteSpace=wrap;html=1;aspect=fixed;" parent="1" vertex="1">
          <mxGeometry x="4120" y="80" width="120" height="120" as="geometry" />
        </mxCell>
        <mxCell id="Fu5X8Zu1OF-X1qIXz92t-19" value="Fail" style="ellipse;whiteSpace=wrap;html=1;aspect=fixed;strokeColor=light-dark(#000000,#FF8000);strokeWidth=5;" parent="1" vertex="1">
          <mxGeometry x="3680" y="20" width="40" height="40" as="geometry" />
        </mxCell>
        <mxCell id="Fu5X8Zu1OF-X1qIXz92t-23" value="Fail" style="ellipse;whiteSpace=wrap;html=1;aspect=fixed;strokeColor=light-dark(#000000,#FF8000);strokeWidth=5;" parent="1" vertex="1">
          <mxGeometry x="3640" y="500" width="40" height="40" as="geometry" />
        </mxCell>
        <mxCell id="Fu5X8Zu1OF-X1qIXz92t-24" value="node_time.py" style="whiteSpace=wrap;html=1;aspect=fixed;" parent="1" vertex="1">
          <mxGeometry x="3880" y="520" width="120" height="120" as="geometry" />
        </mxCell>
        <mxCell id="6yspxrlmjH6FVn7DVC8O-2" value="" style="edgeStyle=orthogonalEdgeStyle;rounded=0;orthogonalLoop=1;jettySize=auto;html=1;entryX=0.5;entryY=0;entryDx=0;entryDy=0;" parent="1" source="6yspxrlmjH6FVn7DVC8O-1" target="ylHFpK_zeYIFlG54JJtC-139" edge="1">
          <mxGeometry relative="1" as="geometry" />
        </mxCell>
        <mxCell id="6yspxrlmjH6FVn7DVC8O-1" value="node_constructor.py" style="whiteSpace=wrap;html=1;aspect=fixed;" parent="1" vertex="1">
          <mxGeometry x="3600" y="-120" width="120" height="120" as="geometry" />
        </mxCell>
        <mxCell id="6yspxrlmjH6FVn7DVC8O-7" value="" style="edgeStyle=orthogonalEdgeStyle;rounded=0;orthogonalLoop=1;jettySize=auto;html=1;" parent="1" source="6yspxrlmjH6FVn7DVC8O-6" target="Bt0ZQPqKcpLA8-kfy0t2-57" edge="1">
          <mxGeometry relative="1" as="geometry" />
        </mxCell>
        <mxCell id="6yspxrlmjH6FVn7DVC8O-8" value="" style="edgeStyle=orthogonalEdgeStyle;rounded=0;orthogonalLoop=1;jettySize=auto;html=1;" parent="1" source="6yspxrlmjH6FVn7DVC8O-6" target="ylHFpK_zeYIFlG54JJtC-132" edge="1">
          <mxGeometry relative="1" as="geometry" />
        </mxCell>
        <mxCell id="6yspxrlmjH6FVn7DVC8O-9" style="edgeStyle=orthogonalEdgeStyle;rounded=0;orthogonalLoop=1;jettySize=auto;html=1;entryX=0;entryY=0.5;entryDx=0;entryDy=0;startArrow=classic;startFill=0;endArrow=none;" parent="1" source="6yspxrlmjH6FVn7DVC8O-6" target="ylHFpK_zeYIFlG54JJtC-147" edge="1">
          <mxGeometry relative="1" as="geometry">
            <Array as="points">
              <mxPoint x="4510" y="120" />
              <mxPoint x="4510" y="100" />
            </Array>
          </mxGeometry>
        </mxCell>
        <mxCell id="6yspxrlmjH6FVn7DVC8O-10" style="edgeStyle=orthogonalEdgeStyle;rounded=0;orthogonalLoop=1;jettySize=auto;html=1;entryX=0;entryY=0.5;entryDx=0;entryDy=0;startArrow=classic;startFill=0;endArrow=none;" parent="1" source="6yspxrlmjH6FVn7DVC8O-6" target="ylHFpK_zeYIFlG54JJtC-148" edge="1">
          <mxGeometry relative="1" as="geometry">
            <Array as="points">
              <mxPoint x="4510" y="160" />
              <mxPoint x="4510" y="180" />
            </Array>
          </mxGeometry>
        </mxCell>
        <mxCell id="6yspxrlmjH6FVn7DVC8O-6" value="protocol.py" style="whiteSpace=wrap;html=1;aspect=fixed;" parent="1" vertex="1">
          <mxGeometry x="4360" y="80" width="120" height="120" as="geometry" />
        </mxCell>
        <mxCell id="LYRd8EbZ3A5YG9yz6sA6-1" value="&lt;font style=&quot;font-size: 100px;&quot;&gt;V 1.1&lt;/font&gt;" style="rounded=1;whiteSpace=wrap;html=1;strokeWidth=13;" parent="1" vertex="1">
          <mxGeometry x="4010" y="-610" width="380" height="250" as="geometry" />
        </mxCell>
        <mxCell id="LYRd8EbZ3A5YG9yz6sA6-3" value="" style="edgeStyle=orthogonalEdgeStyle;rounded=0;orthogonalLoop=1;jettySize=auto;html=1;" parent="1" source="LYRd8EbZ3A5YG9yz6sA6-2" target="ylHFpK_zeYIFlG54JJtC-170" edge="1">
          <mxGeometry relative="1" as="geometry" />
        </mxCell>
        <mxCell id="LYRd8EbZ3A5YG9yz6sA6-2" value="node_confidence&lt;br&gt;_manager.py" style="whiteSpace=wrap;html=1;aspect=fixed;" parent="1" vertex="1">
          <mxGeometry x="3200" y="600" width="120" height="120" as="geometry" />
        </mxCell>
        <mxCell id="kyTzaX4lLYnbmJz1246T-3" value="Avis TDOA" style="ellipse;whiteSpace=wrap;html=1;aspect=fixed;strokeColor=light-dark(#000000,#FF00FF);strokeWidth=5;" parent="1" vertex="1">
          <mxGeometry x="4250" y="350" width="40" height="40" as="geometry" />
        </mxCell>
        <mxCell id="kyTzaX4lLYnbmJz1246T-4" value="Avis Lite" style="ellipse;whiteSpace=wrap;html=1;aspect=fixed;strokeColor=light-dark(#000000,#FF00FF);strokeWidth=5;" parent="1" vertex="1">
          <mxGeometry x="4200" y="350" width="40" height="40" as="geometry" />
        </mxCell>
        <mxCell id="kyTzaX4lLYnbmJz1246T-5" value="Weather" style="ellipse;whiteSpace=wrap;html=1;aspect=fixed;strokeColor=light-dark(#000000,#FF00FF);strokeWidth=5;" parent="1" vertex="1">
          <mxGeometry x="4250" y="290" width="40" height="40" as="geometry" />
        </mxCell>
        <mxCell id="kyTzaX4lLYnbmJz1246T-6" value="Telemetry" style="ellipse;whiteSpace=wrap;html=1;aspect=fixed;strokeColor=light-dark(#000000,#FF00FF);strokeWidth=5;" parent="1" vertex="1">
          <mxGeometry x="4300" y="290" width="40" height="40" as="geometry" />
        </mxCell>
        <mxCell id="kyTzaX4lLYnbmJz1246T-7" value="Startup ACK" style="ellipse;whiteSpace=wrap;html=1;aspect=fixed;strokeColor=light-dark(#000000,#FF00FF);strokeWidth=5;" parent="1" vertex="1">
          <mxGeometry x="4200" y="290" width="40" height="40" as="geometry" />
        </mxCell>
        <mxCell id="kyTzaX4lLYnbmJz1246T-8" value="ACK" style="ellipse;whiteSpace=wrap;html=1;aspect=fixed;strokeColor=light-dark(#000000,#FF00FF);strokeWidth=5;" parent="1" vertex="1">
          <mxGeometry x="4300" y="350" width="40" height="40" as="geometry" />
        </mxCell>
        <mxCell id="PZsNeblNguJEN_u89_DD-3" value="RAK3272LP" style="rounded=1;whiteSpace=wrap;html=1;" parent="1" vertex="1">
          <mxGeometry x="9400" y="290" width="120" height="120" as="geometry" />
        </mxCell>
        <mxCell id="PZsNeblNguJEN_u89_DD-4" value="" style="shape=mxgraph.arrows2.wedgeArrowDashed2;html=1;bendable=0;startWidth=58.94736842105263;stepSize=15;rounded=0;entryX=1;entryY=0.5;entryDx=0;entryDy=0;" parent="1" target="PZsNeblNguJEN_u89_DD-3" edge="1">
          <mxGeometry width="100" height="100" relative="1" as="geometry">
            <mxPoint x="9641" y="348.52999999999975" as="sourcePoint" />
            <mxPoint x="9251" y="208.5300000000002" as="targetPoint" />
          </mxGeometry>
        </mxCell>
        <mxCell id="PZsNeblNguJEN_u89_DD-5" value="RAK3272LP" style="rounded=1;whiteSpace=wrap;html=1;" parent="1" vertex="1">
          <mxGeometry x="9400" y="-110" width="120" height="120" as="geometry" />
        </mxCell>
        <mxCell id="PZsNeblNguJEN_u89_DD-6" value="" style="shape=mxgraph.arrows2.wedgeArrowDashed2;html=1;bendable=0;startWidth=58.94736842105263;stepSize=15;rounded=0;entryX=1;entryY=0.5;entryDx=0;entryDy=0;" parent="1" target="PZsNeblNguJEN_u89_DD-5" edge="1">
          <mxGeometry width="100" height="100" relative="1" as="geometry">
            <mxPoint x="9641" y="-51.4699999999998" as="sourcePoint" />
            <mxPoint x="9251" y="-191.4699999999998" as="targetPoint" />
          </mxGeometry>
        </mxCell>
        <mxCell id="PZsNeblNguJEN_u89_DD-7" value="" style="shape=link;html=1;rounded=0;width=17.36842105263158;entryX=0;entryY=0.5;entryDx=0;entryDy=0;exitX=1;exitY=0.5;exitDx=0;exitDy=0;" parent="1" target="PZsNeblNguJEN_u89_DD-5" edge="1">
          <mxGeometry width="100" relative="1" as="geometry">
            <mxPoint x="9321" y="-51.4699999999998" as="sourcePoint" />
            <mxPoint x="9211" y="258.52999999999975" as="targetPoint" />
          </mxGeometry>
        </mxCell>
        <mxCell id="PZsNeblNguJEN_u89_DD-8" value="" style="shape=link;html=1;rounded=0;width=17.36842105263158;exitX=1;exitY=0.5;exitDx=0;exitDy=0;entryX=0;entryY=0.5;entryDx=0;entryDy=0;" parent="1" target="PZsNeblNguJEN_u89_DD-3" edge="1">
          <mxGeometry width="100" relative="1" as="geometry">
            <mxPoint x="9321" y="348.52999999999975" as="sourcePoint" />
            <mxPoint x="9461" y="358.52999999999975" as="targetPoint" />
          </mxGeometry>
        </mxCell>
        <mxCell id="PZsNeblNguJEN_u89_DD-9" value="" style="edgeStyle=orthogonalEdgeStyle;rounded=0;orthogonalLoop=1;jettySize=auto;html=1;" parent="1" source="PZsNeblNguJEN_u89_DD-10" target="PZsNeblNguJEN_u89_DD-107" edge="1">
          <mxGeometry relative="1" as="geometry" />
        </mxCell>
        <mxCell id="PZsNeblNguJEN_u89_DD-10" value="node_sensor&lt;br&gt;_message_packer.py" style="whiteSpace=wrap;html=1;aspect=fixed;" parent="1" vertex="1">
          <mxGeometry x="8080" y="-110" width="120" height="120" as="geometry" />
        </mxCell>
        <mxCell id="PZsNeblNguJEN_u89_DD-11" value="" style="edgeStyle=orthogonalEdgeStyle;rounded=0;orthogonalLoop=1;jettySize=auto;html=1;" parent="1" source="PZsNeblNguJEN_u89_DD-12" target="PZsNeblNguJEN_u89_DD-10" edge="1">
          <mxGeometry relative="1" as="geometry" />
        </mxCell>
        <mxCell id="PZsNeblNguJEN_u89_DD-12" value="node_weather&lt;br&gt;_sampler.py" style="whiteSpace=wrap;html=1;aspect=fixed;" parent="1" vertex="1">
          <mxGeometry x="7880" y="-110" width="120" height="120" as="geometry" />
        </mxCell>
        <mxCell id="PZsNeblNguJEN_u89_DD-14" value="node_initial&lt;div&gt;_launch.py&lt;/div&gt;" style="whiteSpace=wrap;html=1;aspect=fixed;" parent="1" vertex="1">
          <mxGeometry x="8800" y="450" width="120" height="120" as="geometry" />
        </mxCell>
        <mxCell id="PZsNeblNguJEN_u89_DD-15" value="" style="edgeStyle=orthogonalEdgeStyle;rounded=0;orthogonalLoop=1;jettySize=auto;html=1;endArrow=none;startFill=1;startArrow=classic;" parent="1" source="PZsNeblNguJEN_u89_DD-17" target="PZsNeblNguJEN_u89_DD-29" edge="1">
          <mxGeometry relative="1" as="geometry" />
        </mxCell>
        <mxCell id="PZsNeblNguJEN_u89_DD-16" style="edgeStyle=orthogonalEdgeStyle;rounded=0;orthogonalLoop=1;jettySize=auto;html=1;" parent="1" source="PZsNeblNguJEN_u89_DD-17" target="PZsNeblNguJEN_u89_DD-26" edge="1">
          <mxGeometry relative="1" as="geometry" />
        </mxCell>
        <mxCell id="PZsNeblNguJEN_u89_DD-17" value="node_lora&lt;br&gt;_outbound_message&lt;br&gt;_packer.py" style="whiteSpace=wrap;html=1;aspect=fixed;" parent="1" vertex="1">
          <mxGeometry x="8920" y="290" width="120" height="120" as="geometry" />
        </mxCell>
        <mxCell id="PZsNeblNguJEN_u89_DD-18" value="node_bmp390&lt;br&gt;_driver.py" style="whiteSpace=wrap;html=1;aspect=fixed;" parent="1" vertex="1">
          <mxGeometry x="7440" y="-90" width="120" height="120" as="geometry" />
        </mxCell>
        <mxCell id="PZsNeblNguJEN_u89_DD-19" value="" style="edgeStyle=orthogonalEdgeStyle;rounded=0;orthogonalLoop=1;jettySize=auto;html=1;" parent="1" source="PZsNeblNguJEN_u89_DD-20" target="PZsNeblNguJEN_u89_DD-107" edge="1">
          <mxGeometry relative="1" as="geometry" />
        </mxCell>
        <mxCell id="PZsNeblNguJEN_u89_DD-20" value="node_heading&lt;br&gt;_wrapper.py" style="whiteSpace=wrap;html=1;aspect=fixed;" parent="1" vertex="1">
          <mxGeometry x="8280" y="-270" width="120" height="120" as="geometry" />
        </mxCell>
        <mxCell id="PZsNeblNguJEN_u89_DD-21" value="Weather" style="rhombus;whiteSpace=wrap;html=1;strokeWidth=5;strokeColor=#999900;" parent="1" vertex="1">
          <mxGeometry x="8020" y="-70" width="40" height="40" as="geometry" />
        </mxCell>
        <mxCell id="PZsNeblNguJEN_u89_DD-23" style="edgeStyle=orthogonalEdgeStyle;rounded=0;orthogonalLoop=1;jettySize=auto;html=1;entryX=0.5;entryY=0;entryDx=0;entryDy=0;startArrow=classic;startFill=1;endArrow=none;exitX=1;exitY=0.714;exitDx=0;exitDy=0;exitPerimeter=0;" parent="1" source="PZsNeblNguJEN_u89_DD-26" target="PZsNeblNguJEN_u89_DD-14" edge="1">
          <mxGeometry relative="1" as="geometry">
            <mxPoint x="8590" y="399.5" as="sourcePoint" />
            <Array as="points">
              <mxPoint x="8590" y="410" />
              <mxPoint x="8860" y="410" />
            </Array>
          </mxGeometry>
        </mxCell>
        <mxCell id="PZsNeblNguJEN_u89_DD-26" value="node_dispatcher.py" style="whiteSpace=wrap;html=1;aspect=fixed;" parent="1" vertex="1">
          <mxGeometry x="8200" y="210" width="280" height="280" as="geometry" />
        </mxCell>
        <mxCell id="PZsNeblNguJEN_u89_DD-27" value="Weather" style="ellipse;whiteSpace=wrap;html=1;aspect=fixed;strokeColor=light-dark(#000000,#999900);strokeWidth=5;" parent="1" vertex="1">
          <mxGeometry x="8210" y="30" width="40" height="40" as="geometry" />
        </mxCell>
        <mxCell id="PZsNeblNguJEN_u89_DD-167" style="edgeStyle=orthogonalEdgeStyle;rounded=0;orthogonalLoop=1;jettySize=auto;html=1;entryX=1;entryY=0.333;entryDx=0;entryDy=0;entryPerimeter=0;" parent="1" source="PZsNeblNguJEN_u89_DD-28" target="PZsNeblNguJEN_u89_DD-112" edge="1">
          <mxGeometry relative="1" as="geometry">
            <mxPoint x="9050" y="129.5" as="targetPoint" />
          </mxGeometry>
        </mxCell>
        <mxCell id="PZsNeblNguJEN_u89_DD-28" value="MAPS" style="rounded=1;whiteSpace=wrap;html=1;strokeColor=#009900;strokeWidth=5;" parent="1" vertex="1">
          <mxGeometry x="9090" y="90" width="120" height="40" as="geometry" />
        </mxCell>
        <mxCell id="PZsNeblNguJEN_u89_DD-29" value="node_send_over&lt;br&gt;_lora.py" style="whiteSpace=wrap;html=1;aspect=fixed;" parent="1" vertex="1">
          <mxGeometry x="9200" y="290" width="120" height="120" as="geometry" />
        </mxCell>
        <mxCell id="PZsNeblNguJEN_u89_DD-30" style="edgeStyle=orthogonalEdgeStyle;rounded=0;orthogonalLoop=1;jettySize=auto;html=1;" parent="1" source="PZsNeblNguJEN_u89_DD-62" edge="1">
          <mxGeometry relative="1" as="geometry">
            <mxPoint x="8320" y="-271.5" as="targetPoint" />
            <Array as="points">
              <mxPoint x="8140" y="-310" />
              <mxPoint x="8320" y="-310" />
            </Array>
          </mxGeometry>
        </mxCell>
        <mxCell id="PZsNeblNguJEN_u89_DD-31" style="edgeStyle=orthogonalEdgeStyle;rounded=0;orthogonalLoop=1;jettySize=auto;html=1;entryX=0.5;entryY=0;entryDx=0;entryDy=0;" parent="1" source="PZsNeblNguJEN_u89_DD-32" target="PZsNeblNguJEN_u89_DD-20" edge="1">
          <mxGeometry relative="1" as="geometry" />
        </mxCell>
        <mxCell id="PZsNeblNguJEN_u89_DD-32" value="node_registries&lt;br&gt;_manager.py" style="whiteSpace=wrap;html=1;aspect=fixed;" parent="1" vertex="1">
          <mxGeometry x="8280" y="-470" width="120" height="120" as="geometry" />
        </mxCell>
        <mxCell id="PZsNeblNguJEN_u89_DD-33" value="" style="edgeStyle=orthogonalEdgeStyle;rounded=0;orthogonalLoop=1;jettySize=auto;html=1;" parent="1" source="PZsNeblNguJEN_u89_DD-34" target="PZsNeblNguJEN_u89_DD-32" edge="1">
          <mxGeometry relative="1" as="geometry" />
        </mxCell>
        <mxCell id="PZsNeblNguJEN_u89_DD-34" value="REGISTRIES" style="rounded=1;whiteSpace=wrap;html=1;strokeColor=#009900;strokeWidth=5;" parent="1" vertex="1">
          <mxGeometry x="8280" y="-590" width="120" height="40" as="geometry" />
        </mxCell>
        <mxCell id="PZsNeblNguJEN_u89_DD-35" style="edgeStyle=orthogonalEdgeStyle;rounded=0;orthogonalLoop=1;jettySize=auto;html=1;entryX=0.5;entryY=1;entryDx=0;entryDy=0;exitX=1;exitY=0.5;exitDx=0;exitDy=0;" parent="1" source="PZsNeblNguJEN_u89_DD-123" target="PZsNeblNguJEN_u89_DD-10" edge="1">
          <mxGeometry relative="1" as="geometry" />
        </mxCell>
        <mxCell id="PZsNeblNguJEN_u89_DD-125" value="" style="edgeStyle=orthogonalEdgeStyle;rounded=0;orthogonalLoop=1;jettySize=auto;html=1;" parent="1" source="PZsNeblNguJEN_u89_DD-36" target="PZsNeblNguJEN_u89_DD-123" edge="1">
          <mxGeometry relative="1" as="geometry" />
        </mxCell>
        <mxCell id="PZsNeblNguJEN_u89_DD-36" value="node_birdnet&lt;div&gt;_watcher.py&lt;/div&gt;" style="whiteSpace=wrap;html=1;aspect=fixed;" parent="1" vertex="1">
          <mxGeometry x="7720" y="490" width="120" height="120" as="geometry" />
        </mxCell>
        <mxCell id="PZsNeblNguJEN_u89_DD-37" value="Avis" style="rhombus;whiteSpace=wrap;html=1;strokeWidth=5;strokeColor=#999900;" parent="1" vertex="1">
          <mxGeometry x="8020" y="530" width="40" height="40" as="geometry" />
        </mxCell>
        <mxCell id="PZsNeblNguJEN_u89_DD-38" value="Avis Lite" style="ellipse;whiteSpace=wrap;html=1;aspect=fixed;strokeColor=light-dark(#000000,#999900);strokeWidth=5;" parent="1" vertex="1">
          <mxGeometry x="8260" y="30" width="40" height="40" as="geometry" />
        </mxCell>
        <mxCell id="PZsNeblNguJEN_u89_DD-39" value="Avis TDOA" style="ellipse;whiteSpace=wrap;html=1;aspect=fixed;strokeColor=light-dark(#000000,#999900);strokeWidth=5;" parent="1" vertex="1">
          <mxGeometry x="8260" y="90" width="40" height="40" as="geometry" />
        </mxCell>
        <mxCell id="PZsNeblNguJEN_u89_DD-40" style="edgeStyle=orthogonalEdgeStyle;rounded=0;orthogonalLoop=1;jettySize=auto;html=1;entryX=0;entryY=0.5;entryDx=0;entryDy=0;exitX=0.75;exitY=0;exitDx=0;exitDy=0;" parent="1" source="PZsNeblNguJEN_u89_DD-79" target="PZsNeblNguJEN_u89_DD-53" edge="1">
          <mxGeometry relative="1" as="geometry">
            <Array as="points">
              <mxPoint x="7730" y="-110" />
              <mxPoint x="7840" y="-110" />
              <mxPoint x="7840" y="-410" />
            </Array>
          </mxGeometry>
        </mxCell>
        <mxCell id="PZsNeblNguJEN_u89_DD-41" value="node_telemetry&lt;div&gt;_sampler.py&lt;/div&gt;" style="whiteSpace=wrap;html=1;aspect=fixed;" parent="1" vertex="1">
          <mxGeometry x="7880" y="90" width="120" height="120" as="geometry" />
        </mxCell>
        <mxCell id="PZsNeblNguJEN_u89_DD-42" style="edgeStyle=orthogonalEdgeStyle;rounded=0;orthogonalLoop=1;jettySize=auto;html=1;entryX=-0.008;entryY=0.833;entryDx=0;entryDy=0;entryPerimeter=0;shape=link;width=19.77777777777778;" parent="1" source="PZsNeblNguJEN_u89_DD-43" target="PZsNeblNguJEN_u89_DD-79" edge="1">
          <mxGeometry relative="1" as="geometry">
            <mxPoint x="7630" y="88.5" as="targetPoint" />
            <Array as="points">
              <mxPoint x="7600" y="130" />
              <mxPoint x="7600" y="90" />
            </Array>
          </mxGeometry>
        </mxCell>
        <mxCell id="PZsNeblNguJEN_u89_DD-43" value="node_gps_driver.py" style="whiteSpace=wrap;html=1;aspect=fixed;" parent="1" vertex="1">
          <mxGeometry x="7440" y="70" width="120" height="120" as="geometry" />
        </mxCell>
        <mxCell id="PZsNeblNguJEN_u89_DD-44" value="node_gps&lt;br&gt;_calibrator.py" style="whiteSpace=wrap;html=1;aspect=fixed;" parent="1" vertex="1">
          <mxGeometry x="7960" y="290" width="120" height="120" as="geometry" />
        </mxCell>
        <mxCell id="PZsNeblNguJEN_u89_DD-45" style="edgeStyle=orthogonalEdgeStyle;rounded=0;orthogonalLoop=1;jettySize=auto;html=1;" parent="1" source="PZsNeblNguJEN_u89_DD-41" edge="1">
          <mxGeometry relative="1" as="geometry">
            <mxPoint x="8100" y="8.5" as="targetPoint" />
            <Array as="points">
              <mxPoint x="8100" y="130" />
              <mxPoint x="8100" y="10" />
            </Array>
          </mxGeometry>
        </mxCell>
        <mxCell id="PZsNeblNguJEN_u89_DD-46" style="edgeStyle=orthogonalEdgeStyle;rounded=0;orthogonalLoop=1;jettySize=auto;html=1;entryX=0.5;entryY=1;entryDx=0;entryDy=0;shape=link;width=19.925925925925927;" parent="1" source="PZsNeblNguJEN_u89_DD-47" target="PZsNeblNguJEN_u89_DD-79" edge="1">
          <mxGeometry relative="1" as="geometry" />
        </mxCell>
        <mxCell id="PZsNeblNguJEN_u89_DD-47" value="node_pps_syc.py" style="whiteSpace=wrap;html=1;aspect=fixed;" parent="1" vertex="1">
          <mxGeometry x="7440" y="230" width="120" height="120" as="geometry" />
        </mxCell>
        <mxCell id="PZsNeblNguJEN_u89_DD-48" style="edgeStyle=orthogonalEdgeStyle;rounded=0;orthogonalLoop=1;jettySize=auto;html=1;exitX=0.667;exitY=0;exitDx=0;exitDy=0;exitPerimeter=0;" parent="1" source="PZsNeblNguJEN_u89_DD-44" edge="1">
          <mxGeometry relative="1" as="geometry">
            <mxPoint x="7950" y="278.5" as="sourcePoint" />
            <mxPoint x="7960" y="208.5" as="targetPoint" />
          </mxGeometry>
        </mxCell>
        <mxCell id="PZsNeblNguJEN_u89_DD-49" value="Telemetry" style="rhombus;whiteSpace=wrap;html=1;strokeWidth=5;strokeColor=#999900;" parent="1" vertex="1">
          <mxGeometry x="8030" y="110" width="40" height="40" as="geometry" />
        </mxCell>
        <mxCell id="PZsNeblNguJEN_u89_DD-50" value="PPS" style="rhombus;whiteSpace=wrap;html=1;strokeWidth=5;strokeColor=#999900;" parent="1" vertex="1">
          <mxGeometry x="7750" y="-130" width="40" height="40" as="geometry" />
        </mxCell>
        <mxCell id="PZsNeblNguJEN_u89_DD-51" value="Telemetry" style="ellipse;whiteSpace=wrap;html=1;aspect=fixed;strokeColor=light-dark(#000000,#999900);strokeWidth=5;" parent="1" vertex="1">
          <mxGeometry x="8210" y="90" width="40" height="40" as="geometry" />
        </mxCell>
        <mxCell id="PZsNeblNguJEN_u89_DD-52" style="edgeStyle=orthogonalEdgeStyle;rounded=0;orthogonalLoop=1;jettySize=auto;html=1;" parent="1" source="PZsNeblNguJEN_u89_DD-53" edge="1">
          <mxGeometry relative="1" as="geometry">
            <mxPoint x="8080" y="-411.5" as="targetPoint" />
          </mxGeometry>
        </mxCell>
        <mxCell id="PZsNeblNguJEN_u89_DD-53" value="node_pps&lt;div&gt;_manager.py&lt;/div&gt;" style="whiteSpace=wrap;html=1;aspect=fixed;" parent="1" vertex="1">
          <mxGeometry x="7880" y="-470" width="120" height="120" as="geometry" />
        </mxCell>
        <mxCell id="PZsNeblNguJEN_u89_DD-54" style="edgeStyle=orthogonalEdgeStyle;rounded=0;orthogonalLoop=1;jettySize=auto;html=1;entryX=1;entryY=0.5;entryDx=0;entryDy=0;" parent="1" source="PZsNeblNguJEN_u89_DD-55" target="PZsNeblNguJEN_u89_DD-61" edge="1">
          <mxGeometry relative="1" as="geometry" />
        </mxCell>
        <mxCell id="PZsNeblNguJEN_u89_DD-55" value="node_recieve_over&lt;br&gt;_lora.py" style="whiteSpace=wrap;html=1;aspect=fixed;" parent="1" vertex="1">
          <mxGeometry x="9200" y="-110" width="120" height="120" as="geometry" />
        </mxCell>
        <mxCell id="PZsNeblNguJEN_u89_DD-56" style="edgeStyle=orthogonalEdgeStyle;rounded=0;orthogonalLoop=1;jettySize=auto;html=1;entryX=1;entryY=0.5;entryDx=0;entryDy=0;exitX=0;exitY=0.5;exitDx=0;exitDy=0;" parent="1" source="PZsNeblNguJEN_u89_DD-61" target="PZsNeblNguJEN_u89_DD-60" edge="1">
          <mxGeometry relative="1" as="geometry">
            <mxPoint x="8910" y="-51.5" as="sourcePoint" />
          </mxGeometry>
        </mxCell>
        <mxCell id="PZsNeblNguJEN_u89_DD-57" value="" style="edgeStyle=orthogonalEdgeStyle;rounded=0;orthogonalLoop=1;jettySize=auto;html=1;" parent="1" source="PZsNeblNguJEN_u89_DD-58" target="PZsNeblNguJEN_u89_DD-61" edge="1">
          <mxGeometry relative="1" as="geometry" />
        </mxCell>
        <mxCell id="PZsNeblNguJEN_u89_DD-58" value="node_sanity&lt;br&gt;_check.py" style="whiteSpace=wrap;html=1;aspect=fixed;" parent="1" vertex="1">
          <mxGeometry x="8920" y="-270" width="120" height="120" as="geometry" />
        </mxCell>
        <mxCell id="PZsNeblNguJEN_u89_DD-59" value="" style="edgeStyle=orthogonalEdgeStyle;rounded=0;orthogonalLoop=1;jettySize=auto;html=1;" parent="1" source="PZsNeblNguJEN_u89_DD-60" target="PZsNeblNguJEN_u89_DD-107" edge="1">
          <mxGeometry relative="1" as="geometry" />
        </mxCell>
        <mxCell id="PZsNeblNguJEN_u89_DD-60" value="node_inbound_lora&lt;br&gt;_message_packer.py" style="whiteSpace=wrap;html=1;aspect=fixed;" parent="1" vertex="1">
          <mxGeometry x="8560" y="-110" width="120" height="120" as="geometry" />
        </mxCell>
        <mxCell id="PZsNeblNguJEN_u89_DD-61" value="node__message&lt;div&gt;_decoder.py&lt;/div&gt;" style="whiteSpace=wrap;html=1;aspect=fixed;" parent="1" vertex="1">
          <mxGeometry x="8920" y="-110" width="120" height="120" as="geometry" />
        </mxCell>
        <mxCell id="PZsNeblNguJEN_u89_DD-62" value="node_time.py" style="whiteSpace=wrap;html=1;aspect=fixed;" parent="1" vertex="1">
          <mxGeometry x="8080" y="-470" width="120" height="120" as="geometry" />
        </mxCell>
        <mxCell id="PZsNeblNguJEN_u89_DD-63" value="Initial Launch" style="rhombus;whiteSpace=wrap;html=1;strokeWidth=5;strokeColor=#FF0000;" parent="1" vertex="1">
          <mxGeometry x="8810" y="-100" width="40" height="40" as="geometry" />
        </mxCell>
        <mxCell id="PZsNeblNguJEN_u89_DD-64" value="Change&lt;br&gt;Mode" style="rhombus;whiteSpace=wrap;html=1;strokeWidth=5;strokeColor=#FF0000;" parent="1" vertex="1">
          <mxGeometry x="8760" y="-100" width="40" height="40" as="geometry" />
        </mxCell>
        <mxCell id="PZsNeblNguJEN_u89_DD-65" value="Telemetry Update" style="rhombus;whiteSpace=wrap;html=1;strokeWidth=5;strokeColor=#FF0000;" parent="1" vertex="1">
          <mxGeometry x="8860" y="-100" width="40" height="40" as="geometry" />
        </mxCell>
        <mxCell id="PZsNeblNguJEN_u89_DD-66" value="Error" style="rhombus;whiteSpace=wrap;html=1;strokeWidth=5;strokeColor=#FF8000;" parent="1" vertex="1">
          <mxGeometry x="8760" y="-40" width="40" height="40" as="geometry" />
        </mxCell>
        <mxCell id="PZsNeblNguJEN_u89_DD-67" value="ACK" style="rhombus;whiteSpace=wrap;html=1;strokeWidth=5;strokeColor=#FF0000;" parent="1" vertex="1">
          <mxGeometry x="8860" y="-40" width="40" height="40" as="geometry" />
        </mxCell>
        <mxCell id="PZsNeblNguJEN_u89_DD-68" value="Change Mode" style="ellipse;whiteSpace=wrap;html=1;aspect=fixed;strokeColor=light-dark(#000000, #ff0000);strokeWidth=5;" parent="1" vertex="1">
          <mxGeometry x="8410" y="150" width="40" height="40" as="geometry" />
        </mxCell>
        <mxCell id="PZsNeblNguJEN_u89_DD-69" value="Initial Launch" style="ellipse;whiteSpace=wrap;html=1;aspect=fixed;strokeColor=light-dark(#000000, #ff0000);strokeWidth=5;" parent="1" vertex="1">
          <mxGeometry x="8460" y="150" width="40" height="40" as="geometry" />
        </mxCell>
        <mxCell id="PZsNeblNguJEN_u89_DD-70" value="Telemetry Update" style="ellipse;whiteSpace=wrap;html=1;aspect=fixed;strokeColor=light-dark(#000000, #ff0000);strokeWidth=5;" parent="1" vertex="1">
          <mxGeometry x="8460" y="90" width="40" height="40" as="geometry" />
        </mxCell>
        <mxCell id="PZsNeblNguJEN_u89_DD-71" value="Error" style="ellipse;whiteSpace=wrap;html=1;aspect=fixed;strokeColor=light-dark(#000000,#FF8000);strokeWidth=5;" parent="1" vertex="1">
          <mxGeometry x="8360" y="90" width="40" height="40" as="geometry" />
        </mxCell>
        <mxCell id="PZsNeblNguJEN_u89_DD-72" value="ACK" style="ellipse;whiteSpace=wrap;html=1;aspect=fixed;strokeColor=light-dark(#000000, #ff0000);strokeWidth=5;" parent="1" vertex="1">
          <mxGeometry x="8410" y="90" width="40" height="40" as="geometry" />
        </mxCell>
        <mxCell id="PZsNeblNguJEN_u89_DD-75" style="edgeStyle=orthogonalEdgeStyle;rounded=0;orthogonalLoop=1;jettySize=auto;html=1;shape=link;width=19.247311827956988;" parent="1" source="PZsNeblNguJEN_u89_DD-76" target="PZsNeblNguJEN_u89_DD-79" edge="1">
          <mxGeometry relative="1" as="geometry" />
        </mxCell>
        <mxCell id="PZsNeblNguJEN_u89_DD-76" value="node_sht31&lt;br&gt;_driver.py" style="whiteSpace=wrap;html=1;aspect=fixed;" parent="1" vertex="1">
          <mxGeometry x="7440" y="-250" width="120" height="120" as="geometry" />
        </mxCell>
        <mxCell id="PZsNeblNguJEN_u89_DD-77" style="edgeStyle=orthogonalEdgeStyle;rounded=0;orthogonalLoop=1;jettySize=auto;html=1;entryX=0;entryY=0.5;entryDx=0;entryDy=0;" parent="1" source="PZsNeblNguJEN_u89_DD-79" target="PZsNeblNguJEN_u89_DD-12" edge="1">
          <mxGeometry relative="1" as="geometry">
            <Array as="points">
              <mxPoint x="7800" y="10" />
              <mxPoint x="7800" y="-50" />
            </Array>
          </mxGeometry>
        </mxCell>
        <mxCell id="PZsNeblNguJEN_u89_DD-78" style="edgeStyle=orthogonalEdgeStyle;rounded=0;orthogonalLoop=1;jettySize=auto;html=1;entryX=0;entryY=0.5;entryDx=0;entryDy=0;" parent="1" source="PZsNeblNguJEN_u89_DD-79" target="PZsNeblNguJEN_u89_DD-41" edge="1">
          <mxGeometry relative="1" as="geometry">
            <Array as="points">
              <mxPoint x="7800" y="90" />
              <mxPoint x="7800" y="150" />
            </Array>
          </mxGeometry>
        </mxCell>
        <mxCell id="PZsNeblNguJEN_u89_DD-79" value="node_hardware&lt;br&gt;_manager.py" style="whiteSpace=wrap;html=1;aspect=fixed;" parent="1" vertex="1">
          <mxGeometry x="7640" y="-10" width="120" height="120" as="geometry" />
        </mxCell>
        <mxCell id="PZsNeblNguJEN_u89_DD-80" style="edgeStyle=orthogonalEdgeStyle;rounded=0;orthogonalLoop=1;jettySize=auto;html=1;entryX=-0.003;entryY=0.169;entryDx=0;entryDy=0;entryPerimeter=0;shape=link;width=18.172043010752684;" parent="1" source="PZsNeblNguJEN_u89_DD-18" target="PZsNeblNguJEN_u89_DD-79" edge="1">
          <mxGeometry relative="1" as="geometry">
            <Array as="points">
              <mxPoint x="7600" y="-30" />
              <mxPoint x="7600" y="10" />
            </Array>
          </mxGeometry>
        </mxCell>
        <mxCell id="PZsNeblNguJEN_u89_DD-81" value="node_altitude&lt;br&gt;_calibrator.py" style="whiteSpace=wrap;html=1;aspect=fixed;" parent="1" vertex="1">
          <mxGeometry x="7800" y="290" width="120" height="120" as="geometry" />
        </mxCell>
        <mxCell id="PZsNeblNguJEN_u89_DD-82" style="edgeStyle=orthogonalEdgeStyle;rounded=0;orthogonalLoop=1;jettySize=auto;html=1;entryX=0.333;entryY=1;entryDx=0;entryDy=0;entryPerimeter=0;" parent="1" source="PZsNeblNguJEN_u89_DD-81" target="PZsNeblNguJEN_u89_DD-41" edge="1">
          <mxGeometry relative="1" as="geometry">
            <Array as="points">
              <mxPoint x="7860" y="250" />
              <mxPoint x="7920" y="250" />
            </Array>
          </mxGeometry>
        </mxCell>
        <mxCell id="PZsNeblNguJEN_u89_DD-83" value="" style="edgeStyle=orthogonalEdgeStyle;rounded=0;orthogonalLoop=1;jettySize=auto;html=1;" parent="1" source="PZsNeblNguJEN_u89_DD-84" target="PZsNeblNguJEN_u89_DD-14" edge="1">
          <mxGeometry relative="1" as="geometry" />
        </mxCell>
        <mxCell id="PZsNeblNguJEN_u89_DD-84" value="node_registries&lt;br&gt;_manager.py" style="whiteSpace=wrap;html=1;aspect=fixed;" parent="1" vertex="1">
          <mxGeometry x="9000" y="450" width="120" height="120" as="geometry" />
        </mxCell>
        <mxCell id="PZsNeblNguJEN_u89_DD-85" value="" style="edgeStyle=orthogonalEdgeStyle;rounded=0;orthogonalLoop=1;jettySize=auto;html=1;" parent="1" source="PZsNeblNguJEN_u89_DD-86" target="PZsNeblNguJEN_u89_DD-84" edge="1">
          <mxGeometry relative="1" as="geometry" />
        </mxCell>
        <mxCell id="PZsNeblNguJEN_u89_DD-86" value="REGISTRIES" style="rounded=1;whiteSpace=wrap;html=1;strokeColor=#009900;strokeWidth=5;" parent="1" vertex="1">
          <mxGeometry x="9200" y="490" width="120" height="40" as="geometry" />
        </mxCell>
        <mxCell id="PZsNeblNguJEN_u89_DD-89" value="Startup ACK" style="ellipse;whiteSpace=wrap;html=1;aspect=fixed;strokeColor=light-dark(#000000,#FF8000);strokeWidth=5;" parent="1" vertex="1">
          <mxGeometry x="8210" y="150" width="40" height="40" as="geometry" />
        </mxCell>
        <mxCell id="PZsNeblNguJEN_u89_DD-90" value="" style="edgeStyle=orthogonalEdgeStyle;rounded=0;orthogonalLoop=1;jettySize=auto;html=1;" parent="1" source="PZsNeblNguJEN_u89_DD-91" target="PZsNeblNguJEN_u89_DD-62" edge="1">
          <mxGeometry relative="1" as="geometry" />
        </mxCell>
        <mxCell id="PZsNeblNguJEN_u89_DD-91" value="node_time_mode&lt;br&gt;_manager.py" style="whiteSpace=wrap;html=1;aspect=fixed;" parent="1" vertex="1">
          <mxGeometry x="8080" y="-670" width="120" height="120" as="geometry" />
        </mxCell>
        <mxCell id="PZsNeblNguJEN_u89_DD-128" value="" style="edgeStyle=orthogonalEdgeStyle;rounded=0;orthogonalLoop=1;jettySize=auto;html=1;" parent="1" source="PZsNeblNguJEN_u89_DD-95" target="PZsNeblNguJEN_u89_DD-58" edge="1">
          <mxGeometry relative="1" as="geometry" />
        </mxCell>
        <mxCell id="PZsNeblNguJEN_u89_DD-95" value="node_ ack&lt;br&gt;_manager.py" style="whiteSpace=wrap;html=1;aspect=fixed;" parent="1" vertex="1">
          <mxGeometry x="9080" y="-270" width="120" height="120" as="geometry" />
        </mxCell>
        <mxCell id="PZsNeblNguJEN_u89_DD-96" value="ACK" style="ellipse;whiteSpace=wrap;html=1;aspect=fixed;strokeColor=light-dark(#000000,#FF8000);strokeWidth=5;" parent="1" vertex="1">
          <mxGeometry x="8360" y="150" width="40" height="40" as="geometry" />
        </mxCell>
        <mxCell id="PZsNeblNguJEN_u89_DD-99" value="" style="edgeStyle=orthogonalEdgeStyle;rounded=0;orthogonalLoop=1;jettySize=auto;html=1;" parent="1" source="PZsNeblNguJEN_u89_DD-100" target="PZsNeblNguJEN_u89_DD-20" edge="1">
          <mxGeometry relative="1" as="geometry" />
        </mxCell>
        <mxCell id="PZsNeblNguJEN_u89_DD-100" value="node_unique_id&lt;br&gt;_manager.py" style="whiteSpace=wrap;html=1;aspect=fixed;" parent="1" vertex="1">
          <mxGeometry x="8080" y="-270" width="120" height="120" as="geometry" />
        </mxCell>
        <mxCell id="PZsNeblNguJEN_u89_DD-103" value="Fail" style="ellipse;whiteSpace=wrap;html=1;aspect=fixed;strokeColor=light-dark(#000000,#FF8000);strokeWidth=5;" parent="1" vertex="1">
          <mxGeometry x="8360" y="30" width="40" height="40" as="geometry" />
        </mxCell>
        <mxCell id="PZsNeblNguJEN_u89_DD-106" value="" style="edgeStyle=orthogonalEdgeStyle;rounded=0;orthogonalLoop=1;jettySize=auto;html=1;entryX=0.5;entryY=0;entryDx=0;entryDy=0;" parent="1" source="PZsNeblNguJEN_u89_DD-107" target="PZsNeblNguJEN_u89_DD-26" edge="1">
          <mxGeometry relative="1" as="geometry" />
        </mxCell>
        <mxCell id="PZsNeblNguJEN_u89_DD-107" value="node_constructor.py" style="whiteSpace=wrap;html=1;aspect=fixed;" parent="1" vertex="1">
          <mxGeometry x="8280" y="-110" width="120" height="120" as="geometry" />
        </mxCell>
        <mxCell id="PZsNeblNguJEN_u89_DD-108" value="" style="edgeStyle=orthogonalEdgeStyle;rounded=0;orthogonalLoop=1;jettySize=auto;html=1;" parent="1" source="PZsNeblNguJEN_u89_DD-112" target="PZsNeblNguJEN_u89_DD-61" edge="1">
          <mxGeometry relative="1" as="geometry" />
        </mxCell>
        <mxCell id="PZsNeblNguJEN_u89_DD-109" value="" style="edgeStyle=orthogonalEdgeStyle;rounded=0;orthogonalLoop=1;jettySize=auto;html=1;" parent="1" source="PZsNeblNguJEN_u89_DD-112" target="PZsNeblNguJEN_u89_DD-17" edge="1">
          <mxGeometry relative="1" as="geometry" />
        </mxCell>
        <mxCell id="PZsNeblNguJEN_u89_DD-112" value="protocol.py" style="whiteSpace=wrap;html=1;aspect=fixed;" parent="1" vertex="1">
          <mxGeometry x="8920" y="90" width="120" height="120" as="geometry" />
        </mxCell>
        <mxCell id="PZsNeblNguJEN_u89_DD-113" value="&lt;font style=&quot;font-size: 100px;&quot;&gt;V 1.2&lt;/font&gt;" style="rounded=1;whiteSpace=wrap;html=1;strokeWidth=13;" parent="1" vertex="1">
          <mxGeometry x="8640" y="-800" width="410" height="300" as="geometry" />
        </mxCell>
        <mxCell id="PZsNeblNguJEN_u89_DD-124" value="" style="edgeStyle=orthogonalEdgeStyle;rounded=0;orthogonalLoop=1;jettySize=auto;html=1;" parent="1" source="PZsNeblNguJEN_u89_DD-115" target="PZsNeblNguJEN_u89_DD-123" edge="1">
          <mxGeometry relative="1" as="geometry" />
        </mxCell>
        <mxCell id="PZsNeblNguJEN_u89_DD-115" value="node_confidence&lt;br&gt;_manager.py" style="whiteSpace=wrap;html=1;aspect=fixed;" parent="1" vertex="1">
          <mxGeometry x="7880" y="650" width="120" height="120" as="geometry" />
        </mxCell>
        <mxCell id="PZsNeblNguJEN_u89_DD-116" value="Avis TDOA" style="ellipse;whiteSpace=wrap;html=1;aspect=fixed;strokeColor=light-dark(#000000,#FF00FF);strokeWidth=5;" parent="1" vertex="1">
          <mxGeometry x="8810" y="360" width="40" height="40" as="geometry" />
        </mxCell>
        <mxCell id="PZsNeblNguJEN_u89_DD-117" value="Avis Lite" style="ellipse;whiteSpace=wrap;html=1;aspect=fixed;strokeColor=light-dark(#000000,#FF00FF);strokeWidth=5;" parent="1" vertex="1">
          <mxGeometry x="8760" y="360" width="40" height="40" as="geometry" />
        </mxCell>
        <mxCell id="PZsNeblNguJEN_u89_DD-118" value="Weather" style="ellipse;whiteSpace=wrap;html=1;aspect=fixed;strokeColor=light-dark(#000000,#FF00FF);strokeWidth=5;" parent="1" vertex="1">
          <mxGeometry x="8810" y="300" width="40" height="40" as="geometry" />
        </mxCell>
        <mxCell id="PZsNeblNguJEN_u89_DD-119" value="Telemetry" style="ellipse;whiteSpace=wrap;html=1;aspect=fixed;strokeColor=light-dark(#000000,#FF00FF);strokeWidth=5;" parent="1" vertex="1">
          <mxGeometry x="8860" y="300" width="40" height="40" as="geometry" />
        </mxCell>
        <mxCell id="PZsNeblNguJEN_u89_DD-120" value="Startup ACK" style="ellipse;whiteSpace=wrap;html=1;aspect=fixed;strokeColor=light-dark(#000000,#FF00FF);strokeWidth=5;" parent="1" vertex="1">
          <mxGeometry x="8760" y="300" width="40" height="40" as="geometry" />
        </mxCell>
        <mxCell id="PZsNeblNguJEN_u89_DD-121" value="ACK" style="ellipse;whiteSpace=wrap;html=1;aspect=fixed;strokeColor=light-dark(#000000,#FF00FF);strokeWidth=5;" parent="1" vertex="1">
          <mxGeometry x="8860" y="360" width="40" height="40" as="geometry" />
        </mxCell>
        <mxCell id="PZsNeblNguJEN_u89_DD-123" value="node_birdnet&lt;div&gt;_sampler.py&lt;/div&gt;" style="whiteSpace=wrap;html=1;aspect=fixed;" parent="1" vertex="1">
          <mxGeometry x="7880" y="490" width="120" height="120" as="geometry" />
        </mxCell>
        <mxCell id="PZsNeblNguJEN_u89_DD-127" value="" style="edgeStyle=orthogonalEdgeStyle;rounded=0;orthogonalLoop=1;jettySize=auto;html=1;" parent="1" source="PZsNeblNguJEN_u89_DD-126" target="PZsNeblNguJEN_u89_DD-14" edge="1">
          <mxGeometry relative="1" as="geometry" />
        </mxCell>
        <mxCell id="PZsNeblNguJEN_u89_DD-126" value="node_hardware&lt;br&gt;_manager.py" style="whiteSpace=wrap;html=1;aspect=fixed;" parent="1" vertex="1">
          <mxGeometry x="8800" y="610" width="120" height="120" as="geometry" />
        </mxCell>
        <mxCell id="PZsNeblNguJEN_u89_DD-130" value="" style="rounded=1;whiteSpace=wrap;html=1;fillColor=#333333;" parent="1" vertex="1">
          <mxGeometry x="7400" y="810" width="2020" height="470" as="geometry" />
        </mxCell>
        <mxCell id="PZsNeblNguJEN_u89_DD-131" value="" style="rounded=1;whiteSpace=wrap;html=1;fillColor=default;strokeColor=#009900;strokeWidth=5;" parent="1" vertex="1">
          <mxGeometry x="7430" y="940" width="1580" height="280" as="geometry" />
        </mxCell>
        <mxCell id="PZsNeblNguJEN_u89_DD-132" value="" style="rounded=1;whiteSpace=wrap;html=1;fillColor=none;strokeColor=#009900;strokeWidth=5;" parent="1" vertex="1">
          <mxGeometry x="8740" y="960" width="250" height="240" as="geometry" />
        </mxCell>
        <mxCell id="PZsNeblNguJEN_u89_DD-133" value="" style="rounded=1;whiteSpace=wrap;html=1;fillColor=none;strokeColor=#009900;strokeWidth=5;" parent="1" vertex="1">
          <mxGeometry x="8330" y="960" width="390" height="240" as="geometry" />
        </mxCell>
        <mxCell id="PZsNeblNguJEN_u89_DD-134" value="" style="rounded=1;whiteSpace=wrap;html=1;fillColor=none;strokeColor=#009900;strokeWidth=5;" parent="1" vertex="1">
          <mxGeometry x="7630" y="960" width="500" height="240" as="geometry" />
        </mxCell>
        <mxCell id="PZsNeblNguJEN_u89_DD-135" value="" style="rounded=1;whiteSpace=wrap;html=1;fillColor=none;strokeColor=#009900;strokeWidth=5;" parent="1" vertex="1">
          <mxGeometry x="8150" y="960" width="160" height="240" as="geometry" />
        </mxCell>
        <mxCell id="PZsNeblNguJEN_u89_DD-136" value="MAPS" style="rounded=1;whiteSpace=wrap;html=1;strokeColor=#009900;strokeWidth=5;" parent="1" vertex="1">
          <mxGeometry x="7830" y="980" width="120" height="40" as="geometry" />
        </mxCell>
        <mxCell id="PZsNeblNguJEN_u89_DD-137" value="node_registry&lt;br&gt;.json" style="shape=note;whiteSpace=wrap;html=1;backgroundOutline=1;darkOpacity=0.05;strokeColor=#009900;" parent="1" vertex="1">
          <mxGeometry x="8600" y="1060" width="100" height="120" as="geometry" />
        </mxCell>
        <mxCell id="PZsNeblNguJEN_u89_DD-138" value="gateway_registry&lt;br&gt;.json" style="shape=note;whiteSpace=wrap;html=1;backgroundOutline=1;darkOpacity=0.05;strokeColor=#009900;" parent="1" vertex="1">
          <mxGeometry x="8480" y="1060" width="100" height="120" as="geometry" />
        </mxCell>
        <mxCell id="PZsNeblNguJEN_u89_DD-139" value="time_sync&lt;br&gt;.json" style="shape=note;whiteSpace=wrap;html=1;backgroundOutline=1;darkOpacity=0.05;strokeColor=#009900;" parent="1" vertex="1">
          <mxGeometry x="8350" y="1060" width="100" height="120" as="geometry" />
        </mxCell>
        <mxCell id="PZsNeblNguJEN_u89_DD-140" value="event_type_map&lt;br&gt;.json" style="shape=note;whiteSpace=wrap;html=1;backgroundOutline=1;darkOpacity=0.05;strokeColor=#009900;" parent="1" vertex="1">
          <mxGeometry x="7650" y="1040" width="100" height="120" as="geometry" />
        </mxCell>
        <mxCell id="PZsNeblNguJEN_u89_DD-141" value="confidence_scale&lt;br&gt;_map.json" style="shape=note;whiteSpace=wrap;html=1;backgroundOutline=1;darkOpacity=0.05;strokeColor=#009900;" parent="1" vertex="1">
          <mxGeometry x="7770" y="1040" width="100" height="120" as="geometry" />
        </mxCell>
        <mxCell id="PZsNeblNguJEN_u89_DD-142" value="gps_binary_map&lt;br&gt;.json" style="shape=note;whiteSpace=wrap;html=1;backgroundOutline=1;darkOpacity=0.05;strokeColor=#009900;" parent="1" vertex="1">
          <mxGeometry x="7890" y="1040" width="100" height="120" as="geometry" />
        </mxCell>
        <mxCell id="PZsNeblNguJEN_u89_DD-143" value="taxonomy_map&lt;br&gt;.json" style="shape=note;whiteSpace=wrap;html=1;backgroundOutline=1;darkOpacity=0.05;strokeColor=#009900;" parent="1" vertex="1">
          <mxGeometry x="8010" y="1040" width="100" height="120" as="geometry" />
        </mxCell>
        <mxCell id="PZsNeblNguJEN_u89_DD-144" value="REGISTRIES" style="rounded=1;whiteSpace=wrap;html=1;strokeColor=#009900;strokeWidth=5;" parent="1" vertex="1">
          <mxGeometry x="8470" y="980" width="120" height="40" as="geometry" />
        </mxCell>
        <mxCell id="PZsNeblNguJEN_u89_DD-145" value="FIRMWARE/SOFTWARE" style="rounded=1;whiteSpace=wrap;html=1;strokeColor=#009900;strokeWidth=5;" parent="1" vertex="1">
          <mxGeometry x="8800" y="980" width="150" height="40" as="geometry" />
        </mxCell>
        <mxCell id="PZsNeblNguJEN_u89_DD-146" value="&lt;div&gt;raspberry_pi&lt;br&gt;_os.img&lt;/div&gt;&lt;div&gt;&lt;br&gt;&lt;/div&gt;" style="shape=note;whiteSpace=wrap;html=1;backgroundOutline=1;darkOpacity=0.05;strokeColor=#009900;" parent="1" vertex="1">
          <mxGeometry x="8760" y="1060" width="100" height="120" as="geometry" />
        </mxCell>
        <mxCell id="PZsNeblNguJEN_u89_DD-147" value="birdnet.img" style="shape=note;whiteSpace=wrap;html=1;backgroundOutline=1;darkOpacity=0.05;strokeColor=#009900;" parent="1" vertex="1">
          <mxGeometry x="8870" y="1060" width="100" height="120" as="geometry" />
        </mxCell>
        <mxCell id="PZsNeblNguJEN_u89_DD-148" value="MICRO SD STORAGE" style="rounded=1;whiteSpace=wrap;html=1;strokeColor=#009900;strokeWidth=5;" parent="1" vertex="1">
          <mxGeometry x="8250" y="880" width="120" height="60" as="geometry" />
        </mxCell>
        <mxCell id="PZsNeblNguJEN_u89_DD-149" value="STRUCTURED&lt;br&gt;PROTOCOL" style="rounded=1;whiteSpace=wrap;html=1;strokeColor=#009900;strokeWidth=5;" parent="1" vertex="1">
          <mxGeometry x="8170" y="980" width="120" height="50" as="geometry" />
        </mxCell>
        <mxCell id="PZsNeblNguJEN_u89_DD-150" value="structure&lt;div&gt;_protocol.json&lt;/div&gt;" style="shape=note;whiteSpace=wrap;html=1;backgroundOutline=1;darkOpacity=0.05;strokeColor=#009900;" parent="1" vertex="1">
          <mxGeometry x="8180" y="1060" width="100" height="120" as="geometry" />
        </mxCell>
        <mxCell id="PZsNeblNguJEN_u89_DD-151" value="" style="rounded=1;whiteSpace=wrap;html=1;" parent="1" vertex="1">
          <mxGeometry x="9050" y="900" width="320" height="320" as="geometry" />
        </mxCell>
        <mxCell id="PZsNeblNguJEN_u89_DD-152" value="Event" style="rhombus;whiteSpace=wrap;html=1;strokeWidth=5;strokeColor=#990099;" parent="1" vertex="1">
          <mxGeometry x="9100" y="1150" width="60" height="60" as="geometry" />
        </mxCell>
        <mxCell id="PZsNeblNguJEN_u89_DD-153" value="Event" style="rhombus;whiteSpace=wrap;html=1;strokeWidth=5;strokeColor=#FF0000;" parent="1" vertex="1">
          <mxGeometry x="9100" y="1070" width="60" height="60" as="geometry" />
        </mxCell>
        <mxCell id="PZsNeblNguJEN_u89_DD-154" value="Event" style="rhombus;whiteSpace=wrap;html=1;strokeWidth=5;strokeColor=#999900;" parent="1" vertex="1">
          <mxGeometry x="9100" y="990" width="60" height="60" as="geometry" />
        </mxCell>
        <mxCell id="PZsNeblNguJEN_u89_DD-155" value="LOCAL" style="rounded=1;whiteSpace=wrap;html=1;strokeColor=#009900;strokeWidth=5;" parent="1" vertex="1">
          <mxGeometry x="9070" y="920" width="120" height="40" as="geometry" />
        </mxCell>
        <mxCell id="PZsNeblNguJEN_u89_DD-156" value="Access to locally stored data&amp;nbsp;" style="text;html=1;align=center;verticalAlign=middle;whiteSpace=wrap;rounded=0;" parent="1" vertex="1">
          <mxGeometry x="9210" y="930" width="160" height="30" as="geometry" />
        </mxCell>
        <mxCell id="PZsNeblNguJEN_u89_DD-157" value="Hardware event" style="text;html=1;align=center;verticalAlign=middle;whiteSpace=wrap;rounded=0;" parent="1" vertex="1">
          <mxGeometry x="9240" y="1010" width="100" height="30" as="geometry" />
        </mxCell>
        <mxCell id="PZsNeblNguJEN_u89_DD-158" value="Outbound LoRa event" style="text;html=1;align=center;verticalAlign=middle;whiteSpace=wrap;rounded=0;" parent="1" vertex="1">
          <mxGeometry x="9230" y="1170" width="120" height="30" as="geometry" />
        </mxCell>
        <mxCell id="PZsNeblNguJEN_u89_DD-159" value="Inbound LorRa event" style="text;html=1;align=center;verticalAlign=middle;whiteSpace=wrap;rounded=0;" parent="1" vertex="1">
          <mxGeometry x="9220" y="1090" width="130" height="30" as="geometry" />
        </mxCell>
        <mxCell id="PZsNeblNguJEN_u89_DD-160" value="EnviroPulse Node Script Logic&amp;nbsp; &amp;nbsp; &amp;nbsp; &amp;nbsp; &amp;nbsp; &amp;nbsp; &amp;nbsp; &amp;nbsp; &amp;nbsp; &amp;nbsp; &amp;nbsp; &amp;nbsp; V 1.2" style="rounded=1;whiteSpace=wrap;html=1;" parent="1" vertex="1">
          <mxGeometry x="9050" y="840" width="320" height="40" as="geometry" />
        </mxCell>
        <mxCell id="PZsNeblNguJEN_u89_DD-161" value="" style="rounded=1;whiteSpace=wrap;html=1;fillColor=none;strokeColor=#009900;strokeWidth=5;" parent="1" vertex="1">
          <mxGeometry x="7450" y="960" width="160" height="240" as="geometry" />
        </mxCell>
        <mxCell id="PZsNeblNguJEN_u89_DD-162" value="all_node&lt;br&gt;_scripts.py" style="shape=note;whiteSpace=wrap;html=1;backgroundOutline=1;darkOpacity=0.05;strokeColor=#009900;" parent="1" vertex="1">
          <mxGeometry x="7480" y="1050" width="100" height="120" as="geometry" />
        </mxCell>
        <mxCell id="PZsNeblNguJEN_u89_DD-163" value="SCRIPTS" style="rounded=1;whiteSpace=wrap;html=1;strokeColor=#009900;strokeWidth=5;" parent="1" vertex="1">
          <mxGeometry x="7470" y="990" width="120" height="50" as="geometry" />
        </mxCell>
        <mxCell id="PZsNeblNguJEN_u89_DD-164" value="&lt;font style=&quot;font-size: 25px;&quot;&gt;NODE&lt;/font&gt;" style="rounded=1;whiteSpace=wrap;html=1;strokeWidth=5;strokeColor=#000000;" parent="1" vertex="1">
          <mxGeometry x="7480" y="850" width="110" height="60" as="geometry" />
        </mxCell>
        <mxCell id="PZsNeblNguJEN_u89_DD-168" style="edgeStyle=orthogonalEdgeStyle;rounded=0;orthogonalLoop=1;jettySize=auto;html=1;entryX=1;entryY=0.667;entryDx=0;entryDy=0;entryPerimeter=0;" parent="1" source="PZsNeblNguJEN_u89_DD-166" target="PZsNeblNguJEN_u89_DD-112" edge="1">
          <mxGeometry relative="1" as="geometry">
            <mxPoint x="9050" y="169.5" as="targetPoint" />
          </mxGeometry>
        </mxCell>
        <mxCell id="PZsNeblNguJEN_u89_DD-166" value="STRUCTURED&lt;br&gt;PROTOCOL" style="rounded=1;whiteSpace=wrap;html=1;strokeColor=#009900;strokeWidth=5;" parent="1" vertex="1">
          <mxGeometry x="9090" y="170" width="120" height="50" as="geometry" />
        </mxCell>
        <mxCell id="PZsNeblNguJEN_u89_DD-169" value="&lt;font style=&quot;font-size: 100px;&quot;&gt;V 1.0&lt;/font&gt;" style="rounded=1;whiteSpace=wrap;html=1;strokeWidth=13;" parent="1" vertex="1">
          <mxGeometry x="780" y="-570" width="380" height="250" as="geometry" />
        </mxCell>
        <mxCell id="LPKB3k54g_Fxfj-QyEzr-125" value="" style="edgeStyle=orthogonalEdgeStyle;rounded=0;orthogonalLoop=1;jettySize=auto;html=1;shape=link;" parent="1" source="LPKB3k54g_Fxfj-QyEzr-2" target="LPKB3k54g_Fxfj-QyEzr-124" edge="1">
          <mxGeometry relative="1" as="geometry" />
        </mxCell>
        <mxCell id="LPKB3k54g_Fxfj-QyEzr-2" value="RAK3272LP" style="rounded=1;whiteSpace=wrap;html=1;" parent="1" vertex="1">
          <mxGeometry x="6520" y="280" width="120" height="120" as="geometry" />
        </mxCell>
        <mxCell id="LPKB3k54g_Fxfj-QyEzr-3" value="" style="shape=mxgraph.arrows2.wedgeArrowDashed2;html=1;bendable=0;startWidth=58.94736842105263;stepSize=15;rounded=0;entryX=1;entryY=0.5;entryDx=0;entryDy=0;" parent="1" target="LPKB3k54g_Fxfj-QyEzr-2" edge="1">
          <mxGeometry width="100" height="100" relative="1" as="geometry">
            <mxPoint x="6760" y="340" as="sourcePoint" />
            <mxPoint x="6331" y="38.5300000000002" as="targetPoint" />
          </mxGeometry>
        </mxCell>
        <mxCell id="LPKB3k54g_Fxfj-QyEzr-135" style="edgeStyle=orthogonalEdgeStyle;rounded=0;orthogonalLoop=1;jettySize=auto;html=1;entryX=0.25;entryY=0;entryDx=0;entryDy=0;" parent="1" source="LPKB3k54g_Fxfj-QyEzr-11" target="LPKB3k54g_Fxfj-QyEzr-21" edge="1">
          <mxGeometry relative="1" as="geometry" />
        </mxCell>
        <mxCell id="LPKB3k54g_Fxfj-QyEzr-11" value="weather&lt;br&gt;_sampler.py" style="whiteSpace=wrap;html=1;aspect=fixed;" parent="1" vertex="1">
          <mxGeometry x="5880" y="-120" width="120" height="120" as="geometry" />
        </mxCell>
        <mxCell id="LPKB3k54g_Fxfj-QyEzr-119" style="edgeStyle=orthogonalEdgeStyle;rounded=0;orthogonalLoop=1;jettySize=auto;html=1;entryX=0.25;entryY=0;entryDx=0;entryDy=0;" parent="1" source="LPKB3k54g_Fxfj-QyEzr-16" target="LPKB3k54g_Fxfj-QyEzr-11" edge="1">
          <mxGeometry relative="1" as="geometry" />
        </mxCell>
        <mxCell id="LPKB3k54g_Fxfj-QyEzr-16" value="bmp390&lt;br&gt;_driver.py" style="whiteSpace=wrap;html=1;aspect=fixed;" parent="1" vertex="1">
          <mxGeometry x="5800" y="-280" width="120" height="120" as="geometry" />
        </mxCell>
        <mxCell id="LPKB3k54g_Fxfj-QyEzr-21" value="dispatcher.py" style="whiteSpace=wrap;html=1;aspect=fixed;" parent="1" vertex="1">
          <mxGeometry x="6040" y="40" width="280" height="280" as="geometry" />
        </mxCell>
        <mxCell id="LPKB3k54g_Fxfj-QyEzr-122" value="" style="edgeStyle=orthogonalEdgeStyle;rounded=0;orthogonalLoop=1;jettySize=auto;html=1;" parent="1" source="LPKB3k54g_Fxfj-QyEzr-25" target="LPKB3k54g_Fxfj-QyEzr-21" edge="1">
          <mxGeometry relative="1" as="geometry" />
        </mxCell>
        <mxCell id="LPKB3k54g_Fxfj-QyEzr-25" value="send_over&lt;br&gt;_lora.py" style="whiteSpace=wrap;html=1;aspect=fixed;" parent="1" vertex="1">
          <mxGeometry x="6360" y="120" width="120" height="120" as="geometry" />
        </mxCell>
        <mxCell id="LPKB3k54g_Fxfj-QyEzr-33" value="&lt;div&gt;db_watcher.py&lt;/div&gt;" style="whiteSpace=wrap;html=1;aspect=fixed;" parent="1" vertex="1">
          <mxGeometry x="5720" y="280" width="120" height="120" as="geometry" />
        </mxCell>
        <mxCell id="LPKB3k54g_Fxfj-QyEzr-141" style="edgeStyle=orthogonalEdgeStyle;rounded=0;orthogonalLoop=1;jettySize=auto;html=1;entryX=0.25;entryY=1;entryDx=0;entryDy=0;" parent="1" source="LPKB3k54g_Fxfj-QyEzr-38" target="LPKB3k54g_Fxfj-QyEzr-21" edge="1">
          <mxGeometry relative="1" as="geometry" />
        </mxCell>
        <mxCell id="LPKB3k54g_Fxfj-QyEzr-38" value="telemetry&lt;div&gt;_sampler.py&lt;/div&gt;" style="whiteSpace=wrap;html=1;aspect=fixed;" parent="1" vertex="1">
          <mxGeometry x="5880" y="360" width="120" height="120" as="geometry" />
        </mxCell>
        <mxCell id="LPKB3k54g_Fxfj-QyEzr-139" style="edgeStyle=orthogonalEdgeStyle;rounded=0;orthogonalLoop=1;jettySize=auto;html=1;entryX=0.75;entryY=1;entryDx=0;entryDy=0;" parent="1" source="LPKB3k54g_Fxfj-QyEzr-40" target="LPKB3k54g_Fxfj-QyEzr-38" edge="1">
          <mxGeometry relative="1" as="geometry" />
        </mxCell>
        <mxCell id="LPKB3k54g_Fxfj-QyEzr-40" value="gps_driver.py" style="whiteSpace=wrap;html=1;aspect=fixed;" parent="1" vertex="1">
          <mxGeometry x="5960" y="520" width="120" height="120" as="geometry" />
        </mxCell>
        <mxCell id="LPKB3k54g_Fxfj-QyEzr-140" style="edgeStyle=orthogonalEdgeStyle;rounded=0;orthogonalLoop=1;jettySize=auto;html=1;entryX=0.25;entryY=1;entryDx=0;entryDy=0;" parent="1" source="LPKB3k54g_Fxfj-QyEzr-41" target="LPKB3k54g_Fxfj-QyEzr-38" edge="1">
          <mxGeometry relative="1" as="geometry" />
        </mxCell>
        <mxCell id="LPKB3k54g_Fxfj-QyEzr-41" value="gps&lt;br&gt;_calibrator.py" style="whiteSpace=wrap;html=1;aspect=fixed;" parent="1" vertex="1">
          <mxGeometry x="5800" y="520" width="120" height="120" as="geometry" />
        </mxCell>
        <mxCell id="LPKB3k54g_Fxfj-QyEzr-118" style="edgeStyle=orthogonalEdgeStyle;rounded=0;orthogonalLoop=1;jettySize=auto;html=1;entryX=0.75;entryY=0;entryDx=0;entryDy=0;" parent="1" source="LPKB3k54g_Fxfj-QyEzr-71" target="LPKB3k54g_Fxfj-QyEzr-11" edge="1">
          <mxGeometry relative="1" as="geometry" />
        </mxCell>
        <mxCell id="LPKB3k54g_Fxfj-QyEzr-71" value="sht31&lt;br&gt;_driver.py" style="whiteSpace=wrap;html=1;aspect=fixed;" parent="1" vertex="1">
          <mxGeometry x="5960" y="-280" width="120" height="120" as="geometry" />
        </mxCell>
        <mxCell id="LPKB3k54g_Fxfj-QyEzr-94" value="" style="edgeStyle=orthogonalEdgeStyle;rounded=0;orthogonalLoop=1;jettySize=auto;html=1;" parent="1" source="LPKB3k54g_Fxfj-QyEzr-95" target="LPKB3k54g_Fxfj-QyEzr-25" edge="1">
          <mxGeometry relative="1" as="geometry" />
        </mxCell>
        <mxCell id="LPKB3k54g_Fxfj-QyEzr-95" value="protocol.py" style="whiteSpace=wrap;html=1;aspect=fixed;" parent="1" vertex="1">
          <mxGeometry x="6360" y="-40" width="120" height="120" as="geometry" />
        </mxCell>
        <mxCell id="LPKB3k54g_Fxfj-QyEzr-96" value="&lt;font style=&quot;font-size: 100px;&quot;&gt;V 1.1.F&lt;/font&gt;" style="rounded=1;whiteSpace=wrap;html=1;strokeWidth=13;" parent="1" vertex="1">
          <mxGeometry x="6420" y="-560" width="410" height="300" as="geometry" />
        </mxCell>
        <mxCell id="LPKB3k54g_Fxfj-QyEzr-138" value="" style="edgeStyle=orthogonalEdgeStyle;rounded=0;orthogonalLoop=1;jettySize=auto;html=1;" parent="1" source="LPKB3k54g_Fxfj-QyEzr-98" target="LPKB3k54g_Fxfj-QyEzr-105" edge="1">
          <mxGeometry relative="1" as="geometry" />
        </mxCell>
        <mxCell id="LPKB3k54g_Fxfj-QyEzr-98" value="node_confidence&lt;br&gt;_manager.py" style="whiteSpace=wrap;html=1;aspect=fixed;" parent="1" vertex="1">
          <mxGeometry x="5720" y="120" width="120" height="120" as="geometry" />
        </mxCell>
        <mxCell id="LPKB3k54g_Fxfj-QyEzr-142" value="" style="edgeStyle=orthogonalEdgeStyle;rounded=0;orthogonalLoop=1;jettySize=auto;html=1;" parent="1" source="LPKB3k54g_Fxfj-QyEzr-105" target="LPKB3k54g_Fxfj-QyEzr-21" edge="1">
          <mxGeometry relative="1" as="geometry" />
        </mxCell>
        <mxCell id="LPKB3k54g_Fxfj-QyEzr-105" value="birdnet&lt;div&gt;_sampler.py&lt;/div&gt;" style="whiteSpace=wrap;html=1;aspect=fixed;" parent="1" vertex="1">
          <mxGeometry x="5880" y="120" width="120" height="120" as="geometry" />
        </mxCell>
        <mxCell id="LPKB3k54g_Fxfj-QyEzr-110" value="detection&lt;div&gt;_extractor.py&lt;/div&gt;" style="whiteSpace=wrap;html=1;aspect=fixed;" parent="1" vertex="1">
          <mxGeometry x="5720" y="-40" width="120" height="120" as="geometry" />
        </mxCell>
        <mxCell id="LPKB3k54g_Fxfj-QyEzr-126" value="" style="edgeStyle=orthogonalEdgeStyle;rounded=0;orthogonalLoop=1;jettySize=auto;html=1;" parent="1" source="LPKB3k54g_Fxfj-QyEzr-124" target="LPKB3k54g_Fxfj-QyEzr-25" edge="1">
          <mxGeometry relative="1" as="geometry" />
        </mxCell>
        <mxCell id="LPKB3k54g_Fxfj-QyEzr-124" value="rui3_driver.py" style="whiteSpace=wrap;html=1;aspect=fixed;" parent="1" vertex="1">
          <mxGeometry x="6360" y="280" width="120" height="120" as="geometry" />
        </mxCell>
        <mxCell id="LPKB3k54g_Fxfj-QyEzr-127" value="event_type_map&lt;br&gt;.json" style="shape=note;whiteSpace=wrap;html=1;backgroundOutline=1;darkOpacity=0.05;" parent="1" vertex="1">
          <mxGeometry x="6780" y="-40" width="100" height="120" as="geometry" />
        </mxCell>
        <mxCell id="LPKB3k54g_Fxfj-QyEzr-130" value="taxonomy_map&lt;br&gt;.json" style="shape=note;whiteSpace=wrap;html=1;backgroundOutline=1;darkOpacity=0.05;" parent="1" vertex="1">
          <mxGeometry x="6660" y="-40" width="100" height="120" as="geometry" />
        </mxCell>
        <mxCell id="LPKB3k54g_Fxfj-QyEzr-131" value="structure&lt;div&gt;_protocol.json&lt;/div&gt;" style="shape=note;whiteSpace=wrap;html=1;backgroundOutline=1;darkOpacity=0.05;" parent="1" vertex="1">
          <mxGeometry x="6540" y="-40" width="100" height="120" as="geometry" />
        </mxCell>
        <mxCell id="LPKB3k54g_Fxfj-QyEzr-136" style="edgeStyle=orthogonalEdgeStyle;rounded=0;orthogonalLoop=1;jettySize=auto;html=1;entryX=0;entryY=0.667;entryDx=0;entryDy=0;entryPerimeter=0;" parent="1" source="LPKB3k54g_Fxfj-QyEzr-33" target="LPKB3k54g_Fxfj-QyEzr-105" edge="1">
          <mxGeometry relative="1" as="geometry" />
        </mxCell>
        <mxCell id="LPKB3k54g_Fxfj-QyEzr-137" style="edgeStyle=orthogonalEdgeStyle;rounded=0;orthogonalLoop=1;jettySize=auto;html=1;entryX=0.003;entryY=0.335;entryDx=0;entryDy=0;entryPerimeter=0;" parent="1" source="LPKB3k54g_Fxfj-QyEzr-110" target="LPKB3k54g_Fxfj-QyEzr-105" edge="1">
          <mxGeometry relative="1" as="geometry">
            <Array as="points">
              <mxPoint x="5860" y="20" />
              <mxPoint x="5860" y="160" />
              <mxPoint x="5880" y="160" />
            </Array>
          </mxGeometry>
        </mxCell>
        <mxCell id="LPKB3k54g_Fxfj-QyEzr-143" value="&lt;br&gt;&lt;div&gt;initial_at_setup.py&lt;/div&gt;" style="whiteSpace=wrap;html=1;aspect=fixed;" parent="1" vertex="1">
          <mxGeometry x="6160" y="-120" width="120" height="120" as="geometry" />
        </mxCell>
        <mxCell id="LPKB3k54g_Fxfj-QyEzr-146" style="edgeStyle=orthogonalEdgeStyle;rounded=0;orthogonalLoop=1;jettySize=auto;html=1;entryX=0.643;entryY=0;entryDx=0;entryDy=0;entryPerimeter=0;" parent="1" source="LPKB3k54g_Fxfj-QyEzr-143" target="LPKB3k54g_Fxfj-QyEzr-21" edge="1">
          <mxGeometry relative="1" as="geometry" />
        </mxCell>
      </root>
    </mxGraphModel>
  </diagram>
</mxfile>
